<svg width="307" height="44" viewBox="0 0 307 44" fill="none" xmlns="http://www.w3.org/2000/svg">
<path d="M2.46094 43.4072C1.8457 43.4072 1.37858 43.1395 1.05957 42.604C0.831706 42.228 0.717773 41.7894 0.717773 41.2881C0.717773 40.7184 0.865885 40.069 1.16211 39.3398C1.49251 38.474 2.03939 37.5511 2.80273 36.5713C3.57747 35.5915 4.77946 34.7769 6.40869 34.1274C6.52262 34.0933 6.62516 34.0705 6.71631 34.0591C6.86442 34.0363 7.00114 33.9907 7.12646 33.9224C7.3999 33.797 7.72461 33.3413 8.10059 32.5552C10.1855 28.2144 13.689 18.4731 18.6108 3.33154L19.021 2.11816C19.1919 1.92448 19.3799 1.82764 19.585 1.82764C19.6647 1.82764 19.8014 1.86751 19.9951 1.94727C20.2002 2.01562 20.4224 2.20931 20.6616 2.52832C20.9009 2.83594 21.0205 3.14355 21.0205 3.45117C20.5876 5.37663 19.6647 8.44141 18.252 12.6455C16.8506 16.8382 15.3752 21.0024 13.8257 25.1382C12.2762 29.2739 11.0685 32.1906 10.2026 33.8882C11.2394 33.9793 12.2705 34.0249 13.2959 34.0249C14.8796 34.0249 16.7025 33.8825 18.7646 33.5977C20.8268 33.3242 22.8605 32.9198 24.8657 32.3843C27.0304 31.8146 28.6255 31.3589 29.6509 31.0171C29.8901 30.9487 30.0781 30.9146 30.2148 30.9146C30.3174 30.9146 30.3914 30.9373 30.437 30.9829C30.5054 31.0627 30.5396 31.2051 30.5396 31.4102V31.8032C30.5396 32.3159 30.0326 32.8058 29.0186 33.2729C28.016 33.7515 26.7057 34.1844 25.0879 34.5718C23.4701 34.9591 21.7155 35.2839 19.8242 35.5459C16.7253 35.9902 13.9339 36.2124 11.4502 36.2124C10.6868 36.2124 9.96338 36.1896 9.27979 36.144C8.9266 36.5884 8.44238 37.3232 7.82715 38.3486C6.24349 41.0716 4.80225 42.6895 3.50342 43.2021C3.11605 43.3389 2.76855 43.4072 2.46094 43.4072ZM3.21289 41.2026C3.26986 41.2026 3.38949 41.1514 3.57178 41.0488C3.75407 40.9577 4.18132 40.388 4.85352 39.3398C5.63965 38.0638 6.03271 37.3062 6.03271 37.0669C6.03271 36.896 5.94157 36.8105 5.75928 36.8105C5.28076 36.8105 4.83643 37.0612 4.42627 37.5625C4.01611 38.0752 3.68571 38.6335 3.43506 39.2373C3.16162 39.9095 3.0249 40.445 3.0249 40.8438C3.0249 41.083 3.08757 41.2026 3.21289 41.2026ZM41.229 30.248C40.3973 30.248 39.8049 29.8436 39.4517 29.0347C39.2808 28.5903 39.1953 28.089 39.1953 27.5308C39.1953 26.7788 39.2694 26.0269 39.4175 25.2749C39.5086 24.7394 39.5542 24.3236 39.5542 24.0273C39.5542 23.9362 39.5485 23.8564 39.5371 23.7881C39.4688 23.7881 39.1554 23.9362 38.5972 24.2324C38.0503 24.5173 37.3952 24.8818 36.6318 25.3262C35.652 25.8958 34.883 26.306 34.3247 26.5566C33.7778 26.8073 33.3107 26.9326 32.9233 26.9326C32.6157 26.9326 32.3138 26.8586 32.0176 26.7104C31.6872 26.5851 31.522 26.2946 31.522 25.8389C31.522 25.2692 31.7897 24.335 32.3252 23.0361C32.61 22.3184 32.8664 21.8 33.0942 21.481C33.3107 21.1619 33.5443 21.0024 33.7949 21.0024C34.0228 21.0024 34.2791 21.1164 34.564 21.3442C34.8032 21.4582 34.9229 21.6576 34.9229 21.9424C34.9229 22.1702 34.8488 22.495 34.7007 22.9165C34.4842 23.4634 34.376 23.8451 34.376 24.0615C34.376 24.221 34.4329 24.3008 34.5469 24.3008C34.695 24.3008 34.8887 24.2381 35.1279 24.1128C35.3672 23.9761 35.6463 23.8052 35.9653 23.6001C36.2957 23.395 36.6546 23.1842 37.042 22.9678C38.751 21.988 39.953 21.498 40.6479 21.498C41.0353 21.498 41.3543 21.6177 41.605 21.8569C41.7759 21.9937 41.9012 22.1361 41.981 22.2842C42.0607 22.4209 42.1006 22.6203 42.1006 22.8823C42.1006 23.2697 42.0265 23.8735 41.8784 24.6938C41.7075 25.6281 41.6221 26.3516 41.6221 26.8643C41.6221 27.2858 41.679 27.582 41.793 27.7529C41.9183 27.9238 42.112 28.0093 42.374 28.0093C42.8981 28.0093 44.14 27.5706 46.0996 26.6934C47.5465 26.0553 49.0277 25.3547 50.543 24.5913C52.0697 23.828 53.2716 23.1785 54.1489 22.6431C55.106 22.0734 55.7611 21.7886 56.1143 21.7886C56.3193 21.7886 56.4561 21.8569 56.5244 21.9937C56.5928 22.119 56.627 22.2842 56.627 22.4893C56.627 22.8311 56.063 23.3893 54.9351 24.1641C53.8185 24.9388 52.4229 25.7591 50.748 26.625C49.0732 27.4909 47.3586 28.2656 45.604 28.9492C44.5672 29.3708 43.6956 29.6955 42.9893 29.9233C42.2943 30.1398 41.7075 30.248 41.229 30.248ZM51.5083 34.5547C51.2576 34.4521 51.0697 34.3211 50.9443 34.1616C50.819 34.0021 50.7563 33.7799 50.7563 33.4951C50.7563 33.1077 50.8589 32.5666 51.064 31.8716C51.269 31.188 51.5653 30.2708 51.9526 29.1201L52.978 25.9585C53.9806 22.8937 54.8123 20.3587 55.4731 18.3535C56.1453 16.3483 56.6922 14.759 57.1138 13.5854C57.5467 12.4119 57.8942 11.5518 58.1562 11.0049C58.4297 10.4466 58.6632 10.0934 58.8569 9.94531C59.0506 9.7972 59.2557 9.72314 59.4722 9.72314C59.8026 9.72314 60.0475 9.76872 60.207 9.85986C60.3665 9.93962 60.4463 10.1219 60.4463 10.4067C60.4463 10.7485 60.3324 11.284 60.1045 12.0132C59.8766 12.731 59.5405 13.7279 59.0962 15.0039L58.293 17.3623C57.1423 20.7803 56.4473 22.8766 56.208 23.6514C55.8662 24.7223 55.6953 25.3945 55.6953 25.668C55.6953 25.7705 55.7181 25.8218 55.7637 25.8218C55.9118 25.8218 56.2422 25.5142 56.7549 24.8989C57.8145 23.7368 58.8228 22.7627 59.7798 21.9766C60.6115 21.3499 61.2609 21.0366 61.728 21.0366C62.1154 21.0366 62.349 21.2246 62.4287 21.6006C62.4287 21.7487 62.3262 21.9367 62.1211 22.1646C61.916 22.3924 61.6084 22.7 61.1982 23.0874C60.5146 23.714 59.9963 24.3179 59.6431 24.8989L59.626 24.9673C59.626 25.1268 59.7 25.4686 59.8481 25.9927C59.9963 26.5168 60.1899 27.0238 60.4292 27.5137C60.6685 28.0036 60.9362 28.3112 61.2324 28.4365C61.3805 28.4821 61.5457 28.5049 61.728 28.5049C62.9357 28.5049 64.6903 27.5592 66.9917 25.668C67.9032 24.916 68.6722 24.2381 69.2988 23.6343L70.0337 22.8481C70.7856 22.0962 71.3667 21.7202 71.7769 21.7202C72.0959 21.7202 72.2896 21.9652 72.3579 22.4551C72.3579 22.5462 72.3237 22.6488 72.2554 22.7627C72.1984 22.8766 72.0731 23.0418 71.8794 23.2583C71.6857 23.4748 71.4009 23.7824 71.0249 24.1812C70.6034 24.6597 70.0052 25.2578 69.2305 25.9756C68.4671 26.682 67.6012 27.394 66.6328 28.1118C65.6644 28.8182 64.6732 29.422 63.6592 29.9233C62.6566 30.4132 61.7223 30.6582 60.8564 30.6582C59.4893 30.6582 58.5208 29.9347 57.9512 28.4878L57.3359 26.9497C56.4928 28.0207 55.8548 28.8467 55.4219 29.4277C54.8978 30.1683 54.2826 31.1424 53.5762 32.3501C53.1318 33.1704 52.7559 33.7401 52.4482 34.0591C52.1292 34.3895 51.8159 34.5547 51.5083 34.5547ZM91.165 31.769C89.4674 31.769 88.2541 31.1994 87.5249 30.0601C86.7388 28.841 86.3457 27.1377 86.3457 24.9502C86.3457 24.0046 86.3115 23.3665 86.2432 23.0361C86.1748 22.7057 86.0267 22.5405 85.7988 22.5405C85.1494 22.5405 83.3037 23.6172 80.2617 25.7705C78.8034 26.8187 77.6698 27.3428 76.8608 27.3428C76.3595 27.3428 76.0291 27.132 75.8696 26.7104C75.8127 26.5168 75.7614 26.0326 75.7158 25.2578C75.6816 24.7679 75.6418 24.3236 75.5962 23.9248C75.5506 23.526 75.4709 23.3267 75.3569 23.3267C75.2544 23.3267 74.9297 23.5203 74.3828 23.9077C73.8473 24.2951 73.2264 24.7736 72.52 25.3433C70.7427 26.6763 69.4723 27.3428 68.709 27.3428C68.2988 27.3428 68.0881 27.132 68.0767 26.7104C68.0767 26.5509 68.1792 26.1636 68.3843 25.5483C68.578 24.9331 68.8172 24.2552 69.1021 23.5146C69.3755 22.7741 69.609 22.2158 69.8027 21.8398C69.9964 21.4639 70.1844 21.2189 70.3667 21.105C70.549 20.9797 70.7655 20.917 71.0161 20.917C71.3465 20.917 71.5687 20.9797 71.6826 21.105C71.8079 21.2303 71.8706 21.4012 71.8706 21.6177C71.8706 21.9025 71.8079 22.2443 71.6826 22.6431L71.5288 23.3267L73.2549 22.3354C74.4626 21.6519 75.4823 21.3101 76.314 21.3101C76.9634 21.3101 77.4704 21.5151 77.835 21.9253C78.2109 22.3241 78.3989 22.9222 78.3989 23.7197C78.3989 23.959 78.4103 24.1413 78.4331 24.2666C78.4673 24.3919 78.5413 24.4546 78.6553 24.4546C78.9401 24.4546 79.6579 24.0103 80.8086 23.1216C83.3379 21.3898 85.3203 20.5239 86.7559 20.5239C87.5876 20.5239 88.18 20.8258 88.5332 21.4297C88.6585 21.6917 88.7839 22.1475 88.9092 22.7969C89.0345 23.4463 89.1257 24.1356 89.1826 24.8647C89.2965 26.5737 89.5529 27.7472 89.9517 28.3853C90.3504 29.0119 91.034 29.3252 92.0024 29.3252C93.5291 29.3252 95.6995 28.6986 98.5137 27.4453C101.328 26.1921 104.193 24.5685 107.11 22.5747C108.99 21.2303 110.209 20.5581 110.767 20.5581C111.006 20.5581 111.177 20.6663 111.28 20.8828C111.348 21.0195 111.382 21.1619 111.382 21.3101C111.382 21.6405 111.149 22.0335 110.682 22.4893C110.226 22.9336 109.474 23.5146 108.426 24.2324C104.905 26.6478 101.63 28.5106 98.5991 29.8208C95.5799 31.1196 93.1019 31.769 91.165 31.769ZM115.27 31.0342C114.427 31.0342 113.681 30.8747 113.031 30.5557C112.393 30.2367 111.938 29.7297 111.664 29.0347C111.425 28.3625 111.288 27.4054 111.254 26.1636C111.015 26.2889 110.696 26.5054 110.297 26.813C109.966 27.0636 109.602 27.32 109.203 27.582C108.804 27.8441 108.383 28.0719 107.938 28.2656C107.494 28.4479 107.05 28.5391 106.605 28.5391C105.956 28.5391 105.369 28.2998 104.845 27.8213C104.446 27.4111 104.247 26.9497 104.247 26.437C104.247 25.7762 104.486 25.0926 104.965 24.3862C105.432 23.6799 105.962 23.0475 106.554 22.4893C107.135 21.931 107.631 21.5379 108.041 21.3101C108.451 21.0708 108.907 20.8942 109.408 20.7803C109.91 20.6549 110.394 20.5923 110.861 20.5923C111.339 20.5923 111.761 20.6606 112.125 20.7974C112.49 20.9341 112.684 21.1676 112.707 21.498C112.707 21.7145 112.593 21.8797 112.365 21.9937C112.148 22.0962 111.767 22.1816 111.22 22.25C110.559 22.3525 109.898 22.6545 109.237 23.1558C108.588 23.6571 108.041 24.1925 107.597 24.7622C107.152 25.3319 106.93 25.7534 106.93 26.0269C106.93 26.1636 107.004 26.2319 107.152 26.2319C107.38 26.2319 107.705 26.0952 108.126 25.8218C108.537 25.5483 108.992 25.2293 109.494 24.8647C110.132 24.3748 110.775 23.9305 111.425 23.5317C112.074 23.1216 112.627 22.9165 113.083 22.9165C113.709 22.9165 114.022 23.4292 114.022 24.4546C114.022 24.7394 114 25.0698 113.954 25.4458C113.897 25.8787 113.869 26.2661 113.869 26.6079C113.869 27.4168 114.022 28.0093 114.33 28.3853C114.649 28.7612 115.162 28.9492 115.868 28.9492H115.988C117.913 28.8239 120.01 28.203 122.277 27.0864C124.544 25.9585 126.458 24.7679 128.019 23.5146L128.634 23.002C129.238 22.5007 129.7 22.1418 130.019 21.9253C130.338 21.6974 130.639 21.5835 130.924 21.5835C131.107 21.5835 131.306 21.6234 131.522 21.7031C131.693 21.7715 131.779 21.8854 131.779 22.0449C131.779 22.2044 131.693 22.3924 131.522 22.6089C129.084 25.0584 126.509 27.0124 123.798 28.4707C121.086 29.929 118.506 30.7721 116.056 31C115.783 31.0228 115.521 31.0342 115.27 31.0342ZM127.139 31.0171C126.683 31.0171 126.313 30.8177 126.028 30.4189C125.925 30.2708 125.874 30.0487 125.874 29.7524C125.874 28.7498 126.449 27.0522 127.6 24.6597C128.238 23.3494 128.739 22.4722 129.104 22.0278C129.469 21.5721 129.879 21.3442 130.334 21.3442C130.881 21.3442 131.155 21.6348 131.155 22.2158C131.155 22.7399 130.927 23.526 130.471 24.5742C130.015 25.611 129.788 26.1921 129.788 26.3174H129.805C129.85 26.3174 130.055 26.2091 130.42 25.9927C130.785 25.7762 131.223 25.4914 131.736 25.1382C133.376 23.9761 134.709 23.395 135.735 23.395C137.045 23.395 137.877 24.3407 138.23 26.2319C138.378 27.1092 138.532 27.7415 138.691 28.1289C138.862 28.5163 139.136 28.71 139.512 28.71C139.899 28.71 140.469 28.5277 141.221 28.1631C142.394 27.6276 143.892 26.7446 145.715 25.5142C147.55 24.2723 149.008 23.1615 150.09 22.1816C150.785 21.6348 151.395 21.3613 151.919 21.3613C152.34 21.3613 152.563 21.5322 152.585 21.874C152.585 22.1702 152.352 22.5348 151.885 22.9678C149.549 25.349 147.225 27.2231 144.912 28.5903C142.599 29.9461 140.611 30.624 138.948 30.624C138.389 30.624 137.882 30.5386 137.427 30.3677C136.766 30.0715 136.322 29.5474 136.094 28.7954C135.866 28.0321 135.723 27.3029 135.667 26.6079C135.621 26.2433 135.57 25.9471 135.513 25.7192C135.467 25.48 135.393 25.3604 135.291 25.3604C134.744 25.3604 133.24 26.5225 130.779 28.8467C129.229 30.2936 128.016 31.0171 127.139 31.0171ZM173.469 43.3901C172.455 43.3901 171.726 43.0483 171.281 42.3647C171.099 42.0799 171.008 41.7153 171.008 41.271C171.008 40.5304 171.338 39.4025 171.999 37.8872C172.66 36.3833 174.335 34.0534 177.023 30.8975C175.896 30.3164 174.688 29.7638 173.4 29.2397C171.953 28.6587 170.592 28.0321 169.316 27.3599C168.051 26.6763 167.066 25.8446 166.359 24.8647C165.847 24.1584 165.59 23.3267 165.59 22.3696C165.59 22.0164 165.67 21.3841 165.83 20.4727C166 19.5612 166.895 18.0573 168.513 15.9609C169.96 14.1266 171.731 12.3208 173.828 10.5435C175.924 8.76611 178.146 7.17106 180.493 5.7583C182.84 4.33415 185.101 3.24609 187.277 2.49414C188.941 1.92448 190.439 1.63965 191.772 1.63965C192.182 1.63965 192.575 1.66813 192.951 1.7251C194.899 2.08968 196.164 2.83024 196.745 3.94678C197.098 4.63037 197.275 5.38232 197.275 6.20264C197.275 6.70394 197.15 7.46159 196.899 8.47559C196.66 9.47819 196.118 10.6745 195.275 12.0645C194.444 13.4544 193.578 14.6165 192.678 15.5508C191.789 16.4736 191.123 16.9351 190.678 16.9351C190.507 16.9351 190.336 16.9066 190.166 16.8496C190.006 16.7926 189.869 16.73 189.755 16.6616C189.653 16.5819 189.602 16.5192 189.602 16.4736C189.602 16.3255 190.143 15.5508 191.225 14.1494C192.729 12.2695 193.817 10.4295 194.489 8.62939C194.74 7.95719 194.865 7.33057 194.865 6.74951C194.865 6.41911 194.785 5.96908 194.626 5.39941C194.478 4.81836 193.783 4.36833 192.541 4.04932C192.245 3.99235 191.92 3.96387 191.567 3.96387C190.177 3.96387 188.28 4.46517 185.876 5.46777C183.472 6.45898 180.852 7.95719 178.015 9.9624C175.178 11.9562 172.745 14.1494 170.717 16.542C169.248 18.2054 168.353 19.6011 168.034 20.729C167.92 21.1392 167.863 21.5322 167.863 21.9082C167.863 22.5462 168.08 23.1842 168.513 23.8223C168.957 24.4489 169.715 25.047 170.786 25.6167C171.857 26.175 173.042 26.7104 174.34 27.2231C175.548 27.7017 176.727 28.2314 177.878 28.8125C178.003 28.8809 178.111 28.9435 178.203 29.0005C178.305 29.0575 178.379 29.0973 178.425 29.1201C178.47 29.1429 178.516 29.1543 178.562 29.1543C178.641 29.1543 178.732 29.1429 178.835 29.1201C178.938 29.0859 179.08 29.0461 179.262 29.0005C179.524 28.9321 179.758 28.8979 179.963 28.8979C180.202 28.8979 180.39 28.9378 180.527 29.0176C180.675 29.0973 180.749 29.2056 180.749 29.3423C180.749 29.5132 180.658 29.7297 180.476 29.9917C180.43 30.0487 180.407 30.1113 180.407 30.1797C180.407 30.248 180.441 30.3392 180.51 30.4531C180.578 30.5557 180.749 30.7323 181.022 30.9829C182.401 32.3501 183.09 33.7173 183.09 35.0845C183.09 35.1414 183.073 35.5402 183.039 36.2808C183.005 37.0327 182.475 38.0011 181.45 39.186C180.436 40.3823 179.228 41.3564 177.827 42.1084C176.232 42.9629 174.779 43.3901 173.469 43.3901ZM174.306 41.3223C174.602 41.3223 175.069 41.2083 175.708 40.9805C176.357 40.7526 177.149 40.2399 178.083 39.4424C179.017 38.6562 179.712 37.7448 180.168 36.708C180.384 36.2295 180.493 35.7453 180.493 35.2554C180.493 34.4465 180.174 33.592 179.536 32.6919C179.296 32.3501 179.063 32.1792 178.835 32.1792C178.687 32.1792 178.533 32.2646 178.374 32.4355C176.118 34.999 174.642 36.9587 173.947 38.3145C173.48 39.2145 173.247 39.9038 173.247 40.3823C173.247 40.633 173.309 40.8267 173.435 40.9634C173.64 41.2026 173.93 41.3223 174.306 41.3223ZM192.43 28.7783C191.268 28.7783 190.504 27.9238 190.14 26.2148C189.969 25.4401 189.849 24.7223 189.781 24.0615C189.61 23.0361 189.439 22.5234 189.268 22.5234C189.12 22.5234 188.744 22.7912 188.14 23.3267C187.548 23.8507 186.921 24.4489 186.26 25.1211C185.599 25.7933 185.07 26.3914 184.671 26.9155C184.067 27.7017 183.532 28.0947 183.064 28.0947H182.945C182.614 28.0378 182.364 27.9181 182.193 27.7358C182.011 27.5535 181.919 27.2858 181.919 26.9326V26.7959C181.931 25.7363 183.036 22.6715 185.235 17.6016C186.055 15.6533 186.699 14.1608 187.166 13.124C187.645 12.0872 188.026 11.3695 188.311 10.9707C188.607 10.5605 188.864 10.3327 189.08 10.2871C189.297 10.2301 189.502 10.2017 189.695 10.2017C189.741 10.2017 189.826 10.2074 189.952 10.2188C190.088 10.2301 190.202 10.2871 190.293 10.3896L190.311 10.4751C190.311 10.7144 190.111 11.3809 189.712 12.4746C189.325 13.5684 188.767 14.9697 188.038 16.6787C187.308 18.3877 186.722 19.8175 186.277 20.9683C185.833 22.1076 185.611 22.7342 185.611 22.8481L186.91 22.062C187.445 21.7088 187.964 21.3955 188.465 21.1221C189.057 20.7917 189.581 20.6265 190.037 20.6265C191.199 20.6265 191.894 21.6576 192.122 23.7197C192.19 24.2438 192.287 24.7565 192.413 25.2578C192.549 25.7477 192.686 26.1009 192.823 26.3174C192.959 26.5225 193.17 26.625 193.455 26.625C194.048 26.625 194.925 26.2148 196.087 25.3945C197.249 24.5628 198.468 23.5659 199.744 22.4038L200.086 22.0962C200.405 21.8455 200.718 21.7202 201.026 21.7202C201.265 21.7202 201.459 21.7658 201.607 21.8569C201.664 21.9025 201.692 21.9595 201.692 22.0278C201.692 22.1646 201.59 22.381 201.385 22.6772C201.009 23.2355 200.308 24.016 199.283 25.0186C197.836 26.4199 196.423 27.4453 195.044 28.0947C194.053 28.5505 193.182 28.7783 192.43 28.7783ZM197.138 30.9316C196.716 30.9316 196.317 30.8519 195.941 30.6924C195.554 30.5329 195.207 30.2594 194.899 29.8721C194.591 29.4847 194.438 29.0461 194.438 28.5562C194.438 27.2801 195.412 25.6395 197.36 23.6343C197.986 22.9621 198.596 22.3468 199.188 21.7886C200.237 20.7974 200.909 20.3018 201.205 20.3018C201.342 20.3018 201.479 20.3758 201.615 20.5239C201.752 20.6606 201.934 20.8828 202.162 21.1904C202.242 21.293 202.282 21.3955 202.282 21.498C202.282 21.6917 202.191 21.8911 202.008 22.0962C201.906 22.2443 201.832 22.3867 201.786 22.5234C202.401 23.6058 203.296 24.147 204.469 24.147C205.164 24.147 205.893 23.9932 206.657 23.6855C207.83 23.207 209.22 22.4266 210.827 21.3442C211.772 20.7176 212.336 20.4043 212.519 20.4043C212.678 20.4043 212.809 20.4727 212.912 20.6094C213.014 20.7461 213.065 20.8999 213.065 21.0708C213.065 21.2417 213.014 21.4126 212.912 21.5835C212.08 22.7798 210.946 23.8507 209.511 24.7964C208.075 25.7306 206.452 26.3174 204.64 26.5566C204.389 26.5794 204.179 26.5908 204.008 26.5908C203.848 26.5908 203.717 26.6079 203.615 26.6421C203.524 26.6649 203.432 26.7332 203.341 26.8472C203.262 26.9611 203.148 27.1491 203 27.4111C202.544 28.1631 201.843 28.8923 200.897 29.5986C200.02 30.248 199.063 30.6639 198.026 30.8462C197.73 30.9032 197.434 30.9316 197.138 30.9316ZM197.292 29.0347C197.542 29.0347 198.026 28.784 198.744 28.2827C199.223 27.9409 199.582 27.5535 199.821 27.1206C200.06 26.6877 200.18 26.3003 200.18 25.9585C200.18 25.5939 200.037 25.3319 199.752 25.1724L199.564 25.3604C199.325 25.5882 198.904 26.0667 198.3 26.7959C197.502 27.8327 197.104 28.5106 197.104 28.8296C197.104 28.9663 197.166 29.0347 197.292 29.0347ZM211.296 36.1782C210.863 36.1782 210.562 36.0472 210.391 35.7852C210.345 35.6712 210.322 35.5459 210.322 35.4092C210.322 34.9421 210.59 34.2357 211.125 33.29C211.672 32.3558 212.533 31.2677 213.706 30.0259C214.686 29.0233 215.369 28.2201 215.757 27.6162C216.144 27.001 216.435 26.2661 216.628 25.4116C216.845 24.5571 216.953 23.9077 216.953 23.4634C216.953 22.9735 216.805 22.7285 216.509 22.7285C216.178 22.7285 215.666 22.9792 214.971 23.4805C214.549 23.7653 214.116 24.1014 213.672 24.4888C213.239 24.8761 212.903 25.2236 212.664 25.5312C212.048 26.2262 211.382 26.5737 210.664 26.5737C210.163 26.5737 209.821 26.3573 209.639 25.9243V25.8218C209.639 25.4914 209.798 24.7679 210.117 23.6514C210.527 22.2728 211.405 19.6182 212.749 15.6875C213.786 12.6341 214.441 10.7485 214.714 10.0308C215.079 9.02816 215.324 8.43571 215.449 8.25342C215.7 7.91162 216.025 7.74072 216.423 7.74072H216.748C216.965 7.74072 217.153 7.91162 217.312 8.25342C217.335 8.31038 217.346 8.39583 217.346 8.50977C217.346 8.73763 217.227 9.28451 216.987 10.1504C216.794 10.8682 216.27 12.5658 215.415 15.2432C214.014 19.5042 213.313 21.7088 213.313 21.8569C213.313 21.9025 213.347 21.9253 213.416 21.9253C213.621 21.9253 213.991 21.8 214.526 21.5493C215.324 21.1164 216.144 20.8999 216.987 20.8999C217.716 20.8999 218.32 21.1335 218.799 21.6006C219.186 21.988 219.38 22.5918 219.38 23.4121C219.38 23.6969 219.357 24.0046 219.312 24.335L219.072 25.8047L221.106 24.6255C222.849 23.6115 224.501 22.7513 226.062 22.0449C227.543 21.3727 228.506 21.0366 228.95 21.0366H229.036C229.412 21.1619 229.6 21.3955 229.6 21.7373C229.6 22.0563 229.32 22.3468 228.762 22.6089C228.398 22.7684 227.657 23.1501 226.541 23.7539C225.435 24.3577 224.211 25.0527 222.866 25.8389C221.351 26.7048 220.229 27.3826 219.5 27.8726C218.77 28.3625 218.195 28.8638 217.773 29.3765C217.352 29.8778 216.856 30.5898 216.287 31.5127C215.763 32.3558 215.233 33.1305 214.697 33.8369C214.162 34.5547 213.757 35.0446 213.484 35.3066C212.948 35.7624 212.356 36.0415 211.707 36.144C211.558 36.1668 211.422 36.1782 211.296 36.1782ZM224.669 30.9316C224.247 30.9316 223.849 30.8519 223.473 30.6924C223.085 30.5329 222.738 30.2594 222.43 29.8721C222.123 29.4847 221.969 29.0461 221.969 28.5562C221.969 27.2801 222.943 25.6395 224.891 23.6343C225.518 22.9621 226.127 22.3468 226.72 21.7886C227.768 20.7974 228.44 20.3018 228.736 20.3018C228.873 20.3018 229.01 20.3758 229.146 20.5239C229.283 20.6606 229.465 20.8828 229.693 21.1904C229.773 21.293 229.813 21.3955 229.813 21.498C229.813 21.6917 229.722 21.8911 229.54 22.0962C229.437 22.2443 229.363 22.3867 229.317 22.5234C229.933 23.6058 230.827 24.147 232 24.147C232.695 24.147 233.425 23.9932 234.188 23.6855C235.361 23.207 236.751 22.4266 238.358 21.3442C239.304 20.7176 239.868 20.4043 240.05 20.4043C240.209 20.4043 240.34 20.4727 240.443 20.6094C240.545 20.7461 240.597 20.8999 240.597 21.0708C240.597 21.2417 240.545 21.4126 240.443 21.5835C239.611 22.7798 238.478 23.8507 237.042 24.7964C235.606 25.7306 233.983 26.3174 232.171 26.5566C231.921 26.5794 231.71 26.5908 231.539 26.5908C231.38 26.5908 231.249 26.6079 231.146 26.6421C231.055 26.6649 230.964 26.7332 230.873 26.8472C230.793 26.9611 230.679 27.1491 230.531 27.4111C230.075 28.1631 229.374 28.8923 228.429 29.5986C227.551 30.248 226.594 30.6639 225.558 30.8462C225.261 30.9032 224.965 30.9316 224.669 30.9316ZM224.823 29.0347C225.073 29.0347 225.558 28.784 226.275 28.2827C226.754 27.9409 227.113 27.5535 227.352 27.1206C227.591 26.6877 227.711 26.3003 227.711 25.9585C227.711 25.5939 227.569 25.3319 227.284 25.1724L227.096 25.3604C226.856 25.5882 226.435 26.0667 225.831 26.7959C225.034 27.8327 224.635 28.5106 224.635 28.8296C224.635 28.9663 224.697 29.0347 224.823 29.0347ZM236.811 31.2222C236.446 31.2222 236.099 31.1139 235.769 30.8975C235.438 30.6696 235.216 30.4076 235.102 30.1113C234.988 29.8037 234.931 29.4904 234.931 29.1714C234.931 28.8752 234.954 28.596 235 28.334C235.17 27.2174 235.461 26.1465 235.871 25.1211C236.281 24.0843 236.743 23.2298 237.255 22.5576C237.757 21.8854 238.224 21.5493 238.657 21.5493C239.021 21.5493 239.289 21.6689 239.46 21.9082C239.642 22.1361 239.733 22.4095 239.733 22.7285C239.733 23.0133 239.659 23.3039 239.511 23.6001C239.318 23.9305 239.084 24.4147 238.811 25.0527C238.537 25.6908 238.286 26.3174 238.059 26.9326C237.842 27.5479 237.734 27.958 237.734 28.1631C237.734 28.2201 237.745 28.2485 237.768 28.2485C237.859 28.2485 238.184 28.015 238.742 27.5479C239.3 27.0807 239.961 26.4826 240.725 25.7534C241.773 24.7622 242.548 24.0957 243.049 23.7539C243.562 23.4007 244.017 23.2241 244.416 23.2241C244.963 23.2583 245.305 23.3381 245.441 23.4634C245.59 23.5773 245.664 23.8678 245.664 24.335L245.612 25.9072C245.612 26.2718 245.698 26.4541 245.869 26.4541C245.948 26.4541 246.062 26.4199 246.21 26.3516C247.304 25.8275 248.25 25.2464 249.047 24.6084C249.856 23.9704 250.688 23.2013 251.542 22.3013C251.805 21.9823 252.021 21.8228 252.192 21.8228C252.272 21.8228 252.346 21.8626 252.414 21.9424C252.79 22.2386 252.978 22.5519 252.978 22.8823C252.978 23.0304 252.938 23.2013 252.858 23.395C252.585 24.0444 252.101 24.7052 251.406 25.3774C250.711 26.0382 249.999 26.6307 249.27 27.1548C248.54 27.6789 247.988 28.0549 247.612 28.2827C246.598 28.8524 245.692 29.1372 244.895 29.1372C244.234 29.1372 243.704 28.9321 243.305 28.522C243.203 28.3853 243.123 28.2428 243.066 28.0947C243.02 27.9352 242.963 27.8042 242.895 27.7017C242.838 27.5991 242.741 27.5479 242.604 27.5479C242.331 27.5479 241.784 27.9238 240.964 28.6758C240.007 29.5417 239.198 30.1854 238.537 30.6069C237.876 31.0171 237.301 31.2222 236.811 31.2222ZM264.351 31.0342C263.508 31.0342 262.762 30.8747 262.112 30.5557C261.474 30.2367 261.019 29.7297 260.745 29.0347C260.506 28.3625 260.369 27.4054 260.335 26.1636C260.096 26.2889 259.777 26.5054 259.378 26.813C259.048 27.0636 258.683 27.32 258.284 27.582C257.885 27.8441 257.464 28.0719 257.02 28.2656C256.575 28.4479 256.131 28.5391 255.687 28.5391C255.037 28.5391 254.45 28.2998 253.926 27.8213C253.528 27.4111 253.328 26.9497 253.328 26.437C253.328 25.7762 253.567 25.0926 254.046 24.3862C254.513 23.6799 255.043 23.0475 255.635 22.4893C256.216 21.931 256.712 21.5379 257.122 21.3101C257.532 21.0708 257.988 20.8942 258.489 20.7803C258.991 20.6549 259.475 20.5923 259.942 20.5923C260.42 20.5923 260.842 20.6606 261.207 20.7974C261.571 20.9341 261.765 21.1676 261.788 21.498C261.788 21.7145 261.674 21.8797 261.446 21.9937C261.229 22.0962 260.848 22.1816 260.301 22.25C259.64 22.3525 258.979 22.6545 258.318 23.1558C257.669 23.6571 257.122 24.1925 256.678 24.7622C256.233 25.3319 256.011 25.7534 256.011 26.0269C256.011 26.1636 256.085 26.2319 256.233 26.2319C256.461 26.2319 256.786 26.0952 257.208 25.8218C257.618 25.5483 258.073 25.2293 258.575 24.8647C259.213 24.3748 259.856 23.9305 260.506 23.5317C261.155 23.1216 261.708 22.9165 262.164 22.9165C262.79 22.9165 263.104 23.4292 263.104 24.4546C263.104 24.7394 263.081 25.0698 263.035 25.4458C262.978 25.8787 262.95 26.2661 262.95 26.6079C262.95 27.4168 263.104 28.0093 263.411 28.3853C263.73 28.7612 264.243 28.9492 264.949 28.9492H265.069C266.994 28.8239 269.091 28.203 271.358 27.0864C273.625 25.9585 275.539 24.7679 277.1 23.5146L277.715 23.002C278.319 22.5007 278.781 22.1418 279.1 21.9253C279.419 21.6974 279.721 21.5835 280.005 21.5835C280.188 21.5835 280.387 21.6234 280.604 21.7031C280.774 21.7715 280.86 21.8854 280.86 22.0449C280.86 22.2044 280.774 22.3924 280.604 22.6089C278.165 25.0584 275.59 27.0124 272.879 28.4707C270.167 29.929 267.587 30.7721 265.137 31C264.864 31.0228 264.602 31.0342 264.351 31.0342ZM280.817 31.3418C280.612 31.3418 280.418 31.3247 280.236 31.2905C279.552 31.1538 279.017 30.8462 278.629 30.3677C278.242 29.8778 277.974 29.2739 277.826 28.5562C277.667 27.827 277.587 27.0522 277.587 26.2319C277.587 25.0926 277.684 23.9647 277.877 22.8481C278.071 21.7316 278.271 20.8258 278.476 20.1309C279.022 18.1712 279.786 15.8356 280.766 13.124C281.757 10.401 282.725 7.89453 283.671 5.60449C284.628 3.31445 285.329 1.84473 285.773 1.19531C285.944 0.967448 286.166 0.796549 286.439 0.682617C286.713 0.568685 286.981 0.511719 287.243 0.511719C287.607 0.511719 287.881 0.637044 288.063 0.887695C288.074 0.910482 288.08 0.950358 288.08 1.00732C288.08 1.23519 287.972 1.66243 287.755 2.28906C287.55 2.91569 287.283 3.61637 286.952 4.39111C285.79 7.09131 284.628 10.008 283.466 13.1411C282.315 16.2743 281.512 18.6782 281.056 20.353C280.532 22.438 280.27 24.2324 280.27 25.7363C280.27 26.8301 280.401 27.7074 280.663 28.3682C280.937 29.0176 281.33 29.3423 281.842 29.3423C283.654 29.3423 286.844 26.9782 291.413 22.25C291.903 21.7601 292.204 21.4696 292.318 21.3784C292.432 21.2759 292.546 21.2246 292.66 21.2246C292.831 21.236 292.973 21.3328 293.087 21.5151C293.213 21.6974 293.275 21.8968 293.275 22.1133C293.275 22.626 292.472 23.6799 290.866 25.2749C289.897 26.2319 288.815 27.1719 287.619 28.0947C286.422 29.0176 285.22 29.7923 284.013 30.4189C282.816 31.0342 281.751 31.3418 280.817 31.3418ZM292.361 29.8208H292.156C291.472 29.8208 290.863 29.667 290.327 29.3594C289.78 29.0404 289.427 28.4308 289.268 27.5308C289.222 27.2573 289.199 26.9782 289.199 26.6934C289.199 25.8503 289.393 24.9502 289.78 23.9932C290.566 22.193 291.586 20.8999 292.839 20.1138C293.523 19.6808 294.161 19.4644 294.753 19.4644C295.266 19.4644 295.745 19.6182 296.189 19.9258C296.759 20.3245 297.043 20.8543 297.043 21.5151C297.043 22.5861 296.314 23.9875 294.856 25.7192C294.172 26.5623 293.831 27.0579 293.831 27.2061C293.831 27.2972 293.893 27.3428 294.019 27.3428C294.497 27.3428 295.426 27.0238 296.804 26.3857C298.183 25.7477 299.635 24.9958 301.162 24.1299C302.7 23.2526 304.01 22.4152 305.093 21.6177C305.378 21.424 305.605 21.3271 305.776 21.3271C305.845 21.3271 305.907 21.3442 305.964 21.3784C306.09 21.4696 306.152 21.6234 306.152 21.8398C306.152 21.9082 306.135 22.0449 306.101 22.25C306.067 22.4551 305.913 22.7342 305.64 23.0874C304.842 23.9077 303.629 24.8363 302 25.873C300.382 26.8984 298.684 27.7985 296.907 28.5732C295.141 29.3366 293.625 29.7524 292.361 29.8208ZM292.087 25.7876C292.292 25.7876 292.64 25.4743 293.13 24.8477C293.586 24.2666 293.956 23.6685 294.241 23.0532C294.434 22.6089 294.531 22.2785 294.531 22.062C294.531 21.8455 294.412 21.7373 294.172 21.7373C293.979 21.7373 293.711 21.874 293.369 22.1475C293.027 22.4209 292.714 22.8766 292.429 23.5146C292.065 24.4261 291.882 25.0641 291.882 25.4287C291.882 25.668 291.951 25.7876 292.087 25.7876Z" fill="white"/>
</svg>
