<svg width="455" height="62" viewBox="0 0 455 62" fill="none" xmlns="http://www.w3.org/2000/svg">
<g clip-path="url(#clip0_743_1594)">
<path d="M12.2168 61.7002C10.7682 61.7002 9.72656 61.2119 9.0918 60.2354C8.83138 59.8285 8.70117 59.3076 8.70117 58.6729C8.70117 57.6149 9.17318 56.0036 10.1172 53.8389C11.0612 51.6904 13.4538 48.362 17.2949 43.8535C15.6836 43.0234 13.9583 42.234 12.1191 41.4854C10.0521 40.6553 8.1071 39.7601 6.28418 38.7998C4.47754 37.8232 3.06966 36.6351 2.06055 35.2354C1.32812 34.2262 0.961914 33.0381 0.961914 31.6709C0.961914 31.1663 1.07585 30.263 1.30371 28.9609C1.54785 27.6589 2.82552 25.5104 5.13672 22.5156C7.20378 19.8952 9.7347 17.3154 12.7295 14.7764C15.7243 12.2373 18.8981 9.95866 22.251 7.94043C25.6038 5.90592 28.8346 4.35156 31.9434 3.27734C34.3197 2.46354 36.46 2.05664 38.3643 2.05664C38.9502 2.05664 39.5117 2.09733 40.0488 2.17871C42.832 2.69954 44.6387 3.75749 45.4688 5.35254C45.9733 6.3291 46.2256 7.40332 46.2256 8.5752C46.2256 9.29134 46.0465 10.3737 45.6885 11.8223C45.3467 13.2546 44.5736 14.9635 43.3691 16.9492C42.181 18.9349 40.944 20.5951 39.6582 21.9297C38.3887 23.248 37.4365 23.9072 36.8018 23.9072C36.5576 23.9072 36.3135 23.8665 36.0693 23.7852C35.8415 23.7038 35.6462 23.6143 35.4834 23.5166C35.3369 23.4027 35.2637 23.3132 35.2637 23.248C35.2637 23.0365 36.0368 21.9297 37.583 19.9277C39.7314 17.2422 41.2858 14.6136 42.2461 12.042C42.6042 11.0817 42.7832 10.1865 42.7832 9.35645C42.7832 8.88444 42.6693 8.24154 42.4414 7.42773C42.2298 6.59766 41.237 5.95475 39.4629 5.49902C39.0397 5.41764 38.5758 5.37695 38.0713 5.37695C36.0856 5.37695 33.3757 6.0931 29.9414 7.52539C26.5072 8.94141 22.7637 11.0817 18.7109 13.9463C14.6582 16.7946 11.1833 19.9277 8.28613 23.3457C6.18652 25.722 4.90885 27.7158 4.45312 29.3271C4.29036 29.9131 4.20898 30.4746 4.20898 31.0117C4.20898 31.9232 4.51823 32.8346 5.13672 33.7461C5.77148 34.6413 6.85384 35.4958 8.38379 36.3096C9.91374 37.1071 11.6064 37.8721 13.4619 38.6045C15.1872 39.2881 16.8717 40.0449 18.5156 40.875C18.6947 40.9727 18.8493 41.0622 18.9795 41.1436C19.126 41.2249 19.2318 41.2819 19.2969 41.3145C19.362 41.347 19.4271 41.3633 19.4922 41.3633C19.6061 41.3633 19.7363 41.347 19.8828 41.3145C20.0293 41.2656 20.2327 41.2087 20.4932 41.1436C20.8675 41.0459 21.2012 40.9971 21.4941 40.9971C21.8359 40.9971 22.1045 41.054 22.2998 41.168C22.5114 41.2819 22.6172 41.4365 22.6172 41.6318C22.6172 41.876 22.487 42.1852 22.2266 42.5596C22.1615 42.641 22.1289 42.7305 22.1289 42.8281C22.1289 42.9258 22.1777 43.056 22.2754 43.2188C22.373 43.3652 22.6172 43.6175 23.0078 43.9756C24.9772 45.9287 25.9619 47.8818 25.9619 49.835C25.9619 49.9163 25.9375 50.486 25.8887 51.5439C25.8398 52.6182 25.083 54.0016 23.6182 55.6943C22.1696 57.4033 20.4443 58.7949 18.4424 59.8691C16.1637 61.0898 14.0885 61.7002 12.2168 61.7002ZM13.4131 58.7461C13.8363 58.7461 14.5036 58.5833 15.415 58.2578C16.3428 57.9323 17.474 57.1999 18.8086 56.0605C20.1432 54.9375 21.1361 53.6354 21.7871 52.1543C22.0964 51.4707 22.251 50.779 22.251 50.0791C22.251 48.9235 21.7952 47.7028 20.8838 46.417C20.542 45.9287 20.2083 45.6846 19.8828 45.6846C19.6712 45.6846 19.4515 45.8066 19.2236 46.0508C16.001 49.7129 13.8932 52.5124 12.9004 54.4492C12.2331 55.735 11.8994 56.7197 11.8994 57.4033C11.8994 57.7614 11.9889 58.0381 12.168 58.2334C12.4609 58.5752 12.876 58.7461 13.4131 58.7461ZM39.7324 40.8262C38.0723 40.8262 36.9818 39.6055 36.4609 37.1641C36.2168 36.0573 36.0459 35.0319 35.9482 34.0879C35.7041 32.623 35.46 31.8906 35.2158 31.8906C35.0042 31.8906 34.4671 32.2731 33.6045 33.0381C32.7581 33.7868 31.863 34.6413 30.9189 35.6016C29.9749 36.5618 29.2181 37.4163 28.6484 38.165C27.7858 39.2881 27.0208 39.8496 26.3535 39.8496H26.1826C25.7106 39.7682 25.3525 39.5973 25.1084 39.3369C24.848 39.0765 24.7178 38.694 24.7178 38.1895V37.9941C24.734 36.4805 26.3128 32.1022 29.4541 24.8594C30.626 22.0762 31.5456 19.944 32.2129 18.4629C32.8965 16.9818 33.4417 15.9564 33.8486 15.3867C34.2718 14.8008 34.638 14.4753 34.9473 14.4102C35.2565 14.3288 35.5495 14.2881 35.8262 14.2881C35.8913 14.2881 36.0133 14.2962 36.1924 14.3125C36.3877 14.3288 36.5505 14.4102 36.6807 14.5566L36.7051 14.6787C36.7051 15.0205 36.4202 15.9727 35.8506 17.5352C35.2972 19.0977 34.4997 21.0996 33.458 23.541C32.4163 25.9824 31.5781 28.0251 30.9434 29.6689C30.3086 31.2965 29.9912 32.1917 29.9912 32.3545L31.8467 31.2314C32.6117 30.7269 33.3522 30.2793 34.0684 29.8887C34.9147 29.4167 35.6634 29.1807 36.3145 29.1807C37.9746 29.1807 38.9674 30.6536 39.293 33.5996C39.3906 34.3483 39.529 35.0807 39.708 35.7969C39.9033 36.4967 40.0986 37.0013 40.2939 37.3105C40.4893 37.6035 40.7904 37.75 41.1973 37.75C42.0436 37.75 43.2969 37.1641 44.957 35.9922C46.6172 34.804 48.3587 33.3799 50.1816 31.7197L50.6699 31.2803C51.1257 30.9222 51.5732 30.7432 52.0127 30.7432C52.3545 30.7432 52.6312 30.8083 52.8428 30.9385C52.9242 31.0036 52.9648 31.085 52.9648 31.1826C52.9648 31.3779 52.8184 31.6872 52.5254 32.1104C51.9883 32.9079 50.9873 34.0228 49.5225 35.4551C47.4554 37.457 45.4372 38.9219 43.4678 39.8496C42.0518 40.5007 40.8066 40.8262 39.7324 40.8262ZM46.8867 43.9023C46.2845 43.9023 45.7148 43.7884 45.1777 43.5605C44.6243 43.3327 44.1279 42.9421 43.6885 42.3887C43.249 41.8353 43.0293 41.2087 43.0293 40.5088C43.0293 38.6859 44.4209 36.3421 47.2041 33.4775C48.0993 32.5173 48.9701 31.6383 49.8164 30.8408C51.3138 29.4248 52.2741 28.7168 52.6973 28.7168C52.8926 28.7168 53.0879 28.8226 53.2832 29.0342C53.4785 29.2295 53.7389 29.5469 54.0645 29.9863C54.1784 30.1328 54.2354 30.2793 54.2354 30.4258C54.2354 30.7025 54.1051 30.9873 53.8447 31.2803C53.6982 31.4919 53.5924 31.6953 53.5273 31.8906C54.4062 33.4368 55.6839 34.21 57.3604 34.21C58.3532 34.21 59.3949 33.9902 60.4854 33.5508C62.1618 32.8672 64.1475 31.7523 66.4424 30.2061C67.7933 29.3109 68.599 28.8633 68.8594 28.8633C69.0872 28.8633 69.2744 28.9609 69.4209 29.1562C69.5674 29.3516 69.6406 29.5713 69.6406 29.8154C69.6406 30.0596 69.5674 30.3037 69.4209 30.5479C68.2327 32.2568 66.6133 33.7868 64.5625 35.1377C62.5117 36.4723 60.1924 37.3105 57.6045 37.6523C57.2464 37.6849 56.9453 37.7012 56.7012 37.7012C56.4733 37.7012 56.2861 37.7256 56.1396 37.7744C56.0094 37.807 55.8792 37.9046 55.749 38.0674C55.6351 38.2301 55.4723 38.4987 55.2607 38.873C54.6097 39.9473 53.6087 40.9889 52.2578 41.998C51.0046 42.9258 49.6374 43.5199 48.1562 43.7803C47.7331 43.8617 47.3099 43.9023 46.8867 43.9023ZM47.1064 41.1924C47.4645 41.1924 48.1562 40.8343 49.1816 40.1182C49.8652 39.6299 50.3779 39.0765 50.7197 38.458C51.0615 37.8395 51.2324 37.2861 51.2324 36.7979C51.2324 36.277 51.029 35.9027 50.6221 35.6748L50.3535 35.9434C50.0117 36.2689 49.4095 36.9525 48.5469 37.9941C47.4076 39.4753 46.8379 40.4437 46.8379 40.8994C46.8379 41.0947 46.9274 41.1924 47.1064 41.1924ZM67.542 51.3975C66.9235 51.3975 66.4922 51.2103 66.248 50.8359C66.1829 50.6732 66.1504 50.4941 66.1504 50.2988C66.1504 49.6315 66.5329 48.6224 67.2979 47.2715C68.0791 45.9368 69.3079 44.3825 70.9844 42.6084C72.3841 41.1761 73.3607 40.0286 73.9141 39.166C74.4674 38.2871 74.8825 37.2373 75.1592 36.0166C75.4684 34.7959 75.623 33.8682 75.623 33.2334C75.623 32.5335 75.4115 32.1836 74.9883 32.1836C74.5163 32.1836 73.7839 32.5417 72.791 33.2578C72.1888 33.6647 71.5703 34.1449 70.9355 34.6982C70.3171 35.2516 69.8369 35.748 69.4951 36.1875C68.6162 37.1803 67.6641 37.6768 66.6387 37.6768C65.9225 37.6768 65.4342 37.3675 65.1738 36.749V36.6025C65.1738 36.1305 65.4017 35.097 65.8574 33.502C66.4434 31.5326 67.6966 27.7402 69.6172 22.125C71.0983 17.763 72.0342 15.0693 72.4248 14.0439C72.9456 12.6117 73.2956 11.7653 73.4746 11.5049C73.8327 11.0166 74.2965 10.7725 74.8662 10.7725H75.3301C75.6393 10.7725 75.9079 11.0166 76.1357 11.5049C76.1683 11.5863 76.1846 11.7083 76.1846 11.8711C76.1846 12.1966 76.0137 12.9779 75.6719 14.2148C75.3952 15.2402 74.6465 17.6654 73.4258 21.4902C71.4238 27.5775 70.4229 30.7269 70.4229 30.9385C70.4229 31.0036 70.4717 31.0361 70.5693 31.0361C70.8623 31.0361 71.3913 30.8571 72.1562 30.499C73.2956 29.8805 74.4674 29.5713 75.6719 29.5713C76.7135 29.5713 77.5762 29.9049 78.2598 30.5723C78.8132 31.1257 79.0898 31.9883 79.0898 33.1602C79.0898 33.5671 79.0573 34.0065 78.9922 34.4785L78.6504 36.5781L81.5557 34.8936C84.0459 33.445 86.4059 32.2161 88.6357 31.207C90.7516 30.2467 92.127 29.7666 92.7617 29.7666H92.8838C93.4209 29.9456 93.6895 30.2793 93.6895 30.7676C93.6895 31.2233 93.2907 31.6383 92.4932 32.0127C91.9723 32.2406 90.9144 32.7858 89.3193 33.6484C87.7406 34.5111 85.9909 35.5039 84.0703 36.627C81.9056 37.8639 80.3024 38.8324 79.2607 39.5322C78.2191 40.2321 77.3971 40.9482 76.7949 41.6807C76.1927 42.3968 75.4847 43.4141 74.6709 44.7324C73.9222 45.9368 73.1654 47.0436 72.4004 48.0527C71.6354 49.0781 71.0576 49.778 70.667 50.1523C69.902 50.8034 69.0557 51.2021 68.1279 51.3486C67.9163 51.3812 67.721 51.3975 67.542 51.3975ZM87.0742 43.9023C86.472 43.9023 85.9023 43.7884 85.3652 43.5605C84.8118 43.3327 84.3154 42.9421 83.876 42.3887C83.4365 41.8353 83.2168 41.2087 83.2168 40.5088C83.2168 38.6859 84.6084 36.3421 87.3916 33.4775C88.2868 32.5173 89.1576 31.6383 90.0039 30.8408C91.5013 29.4248 92.4616 28.7168 92.8848 28.7168C93.0801 28.7168 93.2754 28.8226 93.4707 29.0342C93.666 29.2295 93.9264 29.5469 94.252 29.9863C94.3659 30.1328 94.4229 30.2793 94.4229 30.4258C94.4229 30.7025 94.2926 30.9873 94.0322 31.2803C93.8857 31.4919 93.7799 31.6953 93.7148 31.8906C94.5938 33.4368 95.8714 34.21 97.5479 34.21C98.5407 34.21 99.5824 33.9902 100.673 33.5508C102.349 32.8672 104.335 31.7523 106.63 30.2061C107.981 29.3109 108.786 28.8633 109.047 28.8633C109.275 28.8633 109.462 28.9609 109.608 29.1562C109.755 29.3516 109.828 29.5713 109.828 29.8154C109.828 30.0596 109.755 30.3037 109.608 30.5479C108.42 32.2568 106.801 33.7868 104.75 35.1377C102.699 36.4723 100.38 37.3105 97.792 37.6523C97.4339 37.6849 97.1328 37.7012 96.8887 37.7012C96.6608 37.7012 96.4736 37.7256 96.3271 37.7744C96.1969 37.807 96.0667 37.9046 95.9365 38.0674C95.8226 38.2301 95.6598 38.4987 95.4482 38.873C94.7972 39.9473 93.7962 40.9889 92.4453 41.998C91.1921 42.9258 89.8249 43.5199 88.3438 43.7803C87.9206 43.8617 87.4974 43.9023 87.0742 43.9023ZM87.2939 41.1924C87.652 41.1924 88.3438 40.8343 89.3691 40.1182C90.0527 39.6299 90.5654 39.0765 90.9072 38.458C91.249 37.8395 91.4199 37.2861 91.4199 36.7979C91.4199 36.277 91.2165 35.9027 90.8096 35.6748L90.541 35.9434C90.1992 36.2689 89.597 36.9525 88.7344 37.9941C87.5951 39.4753 87.0254 40.4437 87.0254 40.8994C87.0254 41.0947 87.1149 41.1924 87.2939 41.1924ZM104.849 44.3174C104.328 44.3174 103.831 44.1628 103.359 43.8535C102.887 43.528 102.57 43.1536 102.407 42.7305C102.244 42.291 102.163 41.8434 102.163 41.3877C102.163 40.9645 102.196 40.5658 102.261 40.1914C102.505 38.5964 102.92 37.0664 103.506 35.6016C104.092 34.1204 104.751 32.8997 105.483 31.9395C106.2 30.9792 106.867 30.499 107.485 30.499C108.006 30.499 108.389 30.6699 108.633 31.0117C108.893 31.3372 109.023 31.7279 109.023 32.1836C109.023 32.5905 108.918 33.0055 108.706 33.4287C108.429 33.9007 108.096 34.5924 107.705 35.5039C107.314 36.4154 106.956 37.3105 106.631 38.1895C106.322 39.0684 106.167 39.6543 106.167 39.9473C106.167 40.0286 106.183 40.0693 106.216 40.0693C106.346 40.0693 106.81 39.7357 107.607 39.0684C108.405 38.401 109.349 37.5465 110.439 36.5049C111.937 35.0889 113.044 34.1367 113.76 33.6484C114.492 33.1439 115.143 32.8916 115.713 32.8916C116.494 32.9404 116.982 33.0544 117.178 33.2334C117.389 33.3962 117.495 33.8112 117.495 34.4785L117.422 36.7246C117.422 37.2454 117.544 37.5059 117.788 37.5059C117.902 37.5059 118.065 37.457 118.276 37.3594C119.839 36.6107 121.19 35.7806 122.329 34.8691C123.485 33.9577 124.673 32.859 125.894 31.5732C126.268 31.1175 126.577 30.8896 126.821 30.8896C126.935 30.8896 127.041 30.9466 127.139 31.0605C127.676 31.4837 127.944 31.9313 127.944 32.4033C127.944 32.6149 127.887 32.859 127.773 33.1357C127.383 34.0635 126.691 35.0075 125.698 35.9678C124.705 36.9118 123.688 37.7581 122.646 38.5068C121.605 39.2555 120.815 39.7926 120.278 40.1182C118.83 40.932 117.536 41.3389 116.396 41.3389C115.452 41.3389 114.696 41.0459 114.126 40.46C113.979 40.2646 113.866 40.0612 113.784 39.8496C113.719 39.6217 113.638 39.4346 113.54 39.2881C113.459 39.1416 113.32 39.0684 113.125 39.0684C112.734 39.0684 111.953 39.6055 110.781 40.6797C109.414 41.9167 108.258 42.8363 107.314 43.4385C106.37 44.0244 105.549 44.3174 104.849 44.3174ZM144.62 44.0488C143.416 44.0488 142.35 43.821 141.422 43.3652C140.51 42.9095 139.859 42.1852 139.469 41.1924C139.127 40.2321 138.932 38.8649 138.883 37.0908C138.541 37.2699 138.085 37.5791 137.516 38.0186C137.044 38.3766 136.523 38.7428 135.953 39.1172C135.383 39.4915 134.781 39.8171 134.146 40.0938C133.512 40.3542 132.877 40.4844 132.242 40.4844C131.314 40.4844 130.476 40.1426 129.728 39.459C129.158 38.873 128.873 38.2139 128.873 37.4814C128.873 36.5374 129.215 35.5609 129.898 34.5518C130.566 33.5426 131.323 32.6393 132.169 31.8418C132.999 31.0443 133.707 30.4827 134.293 30.1572C134.879 29.8154 135.53 29.5632 136.246 29.4004C136.962 29.2214 137.654 29.1318 138.321 29.1318C139.005 29.1318 139.607 29.2295 140.128 29.4248C140.649 29.6201 140.925 29.9538 140.958 30.4258C140.958 30.735 140.795 30.971 140.47 31.1338C140.16 31.2803 139.615 31.4023 138.834 31.5C137.89 31.6465 136.946 32.0778 136.002 32.7939C135.074 33.5101 134.293 34.2751 133.658 35.0889C133.023 35.9027 132.706 36.5049 132.706 36.8955C132.706 37.0908 132.812 37.1885 133.023 37.1885C133.349 37.1885 133.813 36.9932 134.415 36.6025C135.001 36.2119 135.652 35.7562 136.368 35.2354C137.28 34.5355 138.199 33.9007 139.127 33.3311C140.055 32.7451 140.844 32.4521 141.495 32.4521C142.39 32.4521 142.838 33.1846 142.838 34.6494C142.838 35.0563 142.805 35.5283 142.74 36.0654C142.659 36.6839 142.618 37.2373 142.618 37.7256C142.618 38.8812 142.838 39.7275 143.277 40.2646C143.733 40.8018 144.465 41.0703 145.475 41.0703H145.646C148.396 40.8913 151.391 40.0042 154.63 38.4092C157.869 36.7979 160.603 35.097 162.833 33.3066L163.712 32.5742C164.575 31.8581 165.234 31.3454 165.689 31.0361C166.145 30.7106 166.576 30.5479 166.983 30.5479C167.244 30.5479 167.529 30.6048 167.838 30.7188C168.082 30.8164 168.204 30.9792 168.204 31.207C168.204 31.4349 168.082 31.7035 167.838 32.0127C164.355 35.512 160.676 38.3034 156.803 40.3867C152.929 42.4701 149.243 43.6745 145.743 44C145.353 44.0326 144.978 44.0488 144.62 44.0488ZM168.571 44.4883C168.278 44.4883 168.002 44.4639 167.741 44.415C166.765 44.2197 166 43.7803 165.446 43.0967C164.893 42.3968 164.51 41.5342 164.299 40.5088C164.071 39.4671 163.957 38.3604 163.957 37.1885C163.957 35.5609 164.095 33.9495 164.372 32.3545C164.649 30.7594 164.934 29.4655 165.227 28.4727C166.008 25.6732 167.098 22.3366 168.498 18.4629C169.914 14.5729 171.298 10.9922 172.648 7.7207C174.016 4.44922 175.017 2.34961 175.651 1.42188C175.896 1.09635 176.213 0.852215 176.604 0.689454C176.994 0.526694 177.377 0.445312 177.751 0.445312C178.272 0.445312 178.662 0.624349 178.923 0.982422C178.939 1.01497 178.947 1.07194 178.947 1.15332C178.947 1.47884 178.793 2.08919 178.483 2.98438C178.19 3.87956 177.808 4.88053 177.336 5.9873C175.676 9.84473 174.016 14.0114 172.355 18.4873C170.712 22.9632 169.564 26.3975 168.913 28.79C168.164 31.7686 167.79 34.332 167.79 36.4805C167.79 38.043 167.977 39.2962 168.352 40.2402C168.742 41.168 169.304 41.6318 170.036 41.6318C172.624 41.6318 177.181 38.2546 183.708 31.5C184.408 30.8001 184.839 30.3851 185.002 30.2549C185.165 30.1084 185.327 30.0352 185.49 30.0352C185.734 30.0514 185.938 30.1898 186.101 30.4502C186.28 30.7106 186.369 30.9954 186.369 31.3047C186.369 32.0371 185.222 33.5426 182.927 35.8213C181.543 37.1885 179.997 38.5312 178.288 39.8496C176.579 41.168 174.862 42.2747 173.137 43.1699C171.428 44.0488 169.906 44.4883 168.571 44.4883ZM185.491 42.3154H185.198C184.222 42.3154 183.351 42.0957 182.586 41.6562C181.805 41.2005 181.3 40.3298 181.072 39.0439C181.007 38.6533 180.975 38.2546 180.975 37.8477C180.975 36.6432 181.251 35.3574 181.805 33.9902C182.928 31.4186 184.384 29.5713 186.175 28.4482C187.151 27.8298 188.063 27.5205 188.909 27.5205C189.642 27.5205 190.325 27.7402 190.96 28.1797C191.774 28.7493 192.181 29.5062 192.181 30.4502C192.181 31.9801 191.139 33.9821 189.056 36.4561C188.079 37.6605 187.591 38.3685 187.591 38.5801C187.591 38.7103 187.68 38.7754 187.859 38.7754C188.543 38.7754 189.869 38.3197 191.839 37.4082C193.808 36.4967 195.883 35.4225 198.064 34.1855C200.262 32.9323 202.133 31.736 203.68 30.5967C204.087 30.32 204.412 30.1816 204.656 30.1816C204.754 30.1816 204.843 30.2061 204.925 30.2549C205.104 30.3851 205.193 30.6048 205.193 30.9141C205.193 31.0117 205.169 31.207 205.12 31.5C205.071 31.793 204.852 32.1917 204.461 32.6963C203.322 33.8682 201.588 35.1947 199.261 36.6758C196.95 38.1406 194.524 39.4264 191.985 40.5332C189.463 41.6237 187.298 42.2178 185.491 42.3154ZM185.101 36.5537C185.394 36.5537 185.89 36.1061 186.59 35.2109C187.241 34.3809 187.77 33.5264 188.177 32.6475C188.453 32.0127 188.592 31.5407 188.592 31.2314C188.592 30.9222 188.421 30.7676 188.079 30.7676C187.802 30.7676 187.42 30.9629 186.932 31.3535C186.443 31.7441 185.996 32.3952 185.589 33.3066C185.068 34.6087 184.808 35.5202 184.808 36.041C184.808 36.3828 184.905 36.5537 185.101 36.5537ZM217.744 61.7246C216.865 61.7246 216.198 61.3421 215.742 60.5771C215.417 60.04 215.254 59.4134 215.254 58.6973C215.254 57.8835 215.465 56.9557 215.889 55.9141C216.361 54.6771 217.142 53.3587 218.232 51.959C219.339 50.5592 221.056 49.3955 223.384 48.4678C223.547 48.4189 223.693 48.3864 223.823 48.3701C224.035 48.3376 224.23 48.2725 224.409 48.1748C224.8 47.9958 225.264 47.3447 225.801 46.2217C228.779 40.0205 233.784 26.1045 240.815 4.47363L241.401 2.74023C241.646 2.46354 241.914 2.3252 242.207 2.3252C242.321 2.3252 242.516 2.38216 242.793 2.49609C243.086 2.59375 243.403 2.87044 243.745 3.32617C244.087 3.76562 244.258 4.20508 244.258 4.64453C243.639 7.39518 242.321 11.7734 240.303 17.7793C238.301 23.7689 236.193 29.7178 233.979 35.626C231.766 41.5342 230.041 45.7008 228.804 48.126C230.285 48.2562 231.758 48.3213 233.223 48.3213C235.485 48.3213 238.089 48.1178 241.035 47.7109C243.981 47.3203 246.886 46.7425 249.751 45.9775C252.843 45.1637 255.122 44.5127 256.587 44.0244C256.929 43.9268 257.197 43.8779 257.393 43.8779C257.539 43.8779 257.645 43.9105 257.71 43.9756C257.808 44.0895 257.856 44.293 257.856 44.5859V45.1475C257.856 45.8799 257.132 46.5798 255.684 47.2471C254.251 47.9307 252.38 48.5492 250.068 49.1025C247.757 49.6559 245.251 50.1198 242.549 50.4941C238.122 51.1289 234.134 51.4463 230.586 51.4463C229.495 51.4463 228.462 51.4137 227.485 51.3486C226.981 51.9834 226.289 53.0332 225.41 54.498C223.148 58.388 221.089 60.6992 219.233 61.4316C218.68 61.627 218.184 61.7246 217.744 61.7246ZM218.818 58.5752C218.9 58.5752 219.071 58.502 219.331 58.3555C219.591 58.2253 220.202 57.4115 221.162 55.9141C222.285 54.0911 222.847 53.0088 222.847 52.667C222.847 52.4229 222.716 52.3008 222.456 52.3008C221.772 52.3008 221.138 52.6589 220.552 53.375C219.966 54.1074 219.494 54.9049 219.136 55.7676C218.745 56.7279 218.55 57.4928 218.55 58.0625C218.55 58.4043 218.639 58.5752 218.818 58.5752ZM273.556 42.9258C272.368 42.9258 271.521 42.348 271.017 41.1924C270.772 40.5576 270.65 39.8415 270.65 39.0439C270.65 37.9697 270.756 36.8955 270.968 35.8213C271.098 35.0563 271.163 34.4622 271.163 34.0391C271.163 33.9089 271.155 33.7949 271.139 33.6973C271.041 33.6973 270.593 33.9089 269.796 34.332C269.015 34.7389 268.079 35.2598 266.988 35.8945C265.589 36.7083 264.49 37.2943 263.692 37.6523C262.911 38.0104 262.244 38.1895 261.69 38.1895C261.251 38.1895 260.82 38.0837 260.396 37.8721C259.924 37.693 259.688 37.278 259.688 36.627C259.688 35.8132 260.071 34.4785 260.836 32.623C261.243 31.5977 261.609 30.8571 261.935 30.4014C262.244 29.9456 262.577 29.7178 262.936 29.7178C263.261 29.7178 263.627 29.8805 264.034 30.2061C264.376 30.3688 264.547 30.6536 264.547 31.0605C264.547 31.3861 264.441 31.8499 264.229 32.4521C263.92 33.2334 263.766 33.7786 263.766 34.0879C263.766 34.3158 263.847 34.4297 264.01 34.4297C264.221 34.4297 264.498 34.3402 264.84 34.1611C265.182 33.9658 265.58 33.7217 266.036 33.4287C266.508 33.1357 267.021 32.8346 267.574 32.5254C270.016 31.1257 271.733 30.4258 272.726 30.4258C273.279 30.4258 273.735 30.5967 274.093 30.9385C274.337 31.1338 274.516 31.3372 274.63 31.5488C274.744 31.7441 274.801 32.029 274.801 32.4033C274.801 32.9567 274.695 33.8193 274.483 34.9912C274.239 36.3258 274.117 37.3594 274.117 38.0918C274.117 38.694 274.199 39.1172 274.361 39.3613C274.54 39.6055 274.817 39.7275 275.191 39.7275C275.94 39.7275 277.714 39.1009 280.514 37.8477C282.581 36.9362 284.697 35.9352 286.861 34.8447C289.042 33.7542 290.759 32.8265 292.013 32.0615C293.38 31.2477 294.316 30.8408 294.82 30.8408C295.113 30.8408 295.309 30.9385 295.406 31.1338C295.504 31.3128 295.553 31.5488 295.553 31.8418C295.553 32.3301 294.747 33.1276 293.136 34.2344C291.541 35.3411 289.547 36.513 287.154 37.75C284.762 38.987 282.312 40.0938 279.806 41.0703C278.325 41.6725 277.079 42.1364 276.07 42.4619C275.077 42.7712 274.239 42.9258 273.556 42.9258ZM288.669 49.0781C288.311 48.9316 288.042 48.7445 287.863 48.5166C287.684 48.2887 287.595 47.9714 287.595 47.5645C287.595 47.0111 287.741 46.238 288.034 45.2451C288.327 44.2686 288.75 42.9583 289.304 41.3145L290.769 36.7979C292.201 32.4196 293.389 28.7982 294.333 25.9336C295.293 23.069 296.075 20.7985 296.677 19.1221C297.295 17.4456 297.792 16.2168 298.166 15.4355C298.557 14.638 298.89 14.1335 299.167 13.9219C299.444 13.7103 299.737 13.6045 300.046 13.6045C300.518 13.6045 300.868 13.6696 301.096 13.7998C301.324 13.9137 301.438 14.1742 301.438 14.5811C301.438 15.0693 301.275 15.8343 300.949 16.876C300.624 17.9014 300.144 19.3255 299.509 21.1484L298.361 24.5176C296.717 29.4004 295.725 32.3952 295.383 33.502C294.895 35.0319 294.65 35.9922 294.65 36.3828C294.65 36.5293 294.683 36.6025 294.748 36.6025C294.96 36.6025 295.432 36.1631 296.164 35.2842C297.678 33.624 299.118 32.2324 300.485 31.1094C301.674 30.2142 302.601 29.7666 303.269 29.7666C303.822 29.7666 304.156 30.0352 304.27 30.5723C304.27 30.7839 304.123 31.0524 303.83 31.3779C303.537 31.7035 303.098 32.1429 302.512 32.6963C301.535 33.5915 300.795 34.4541 300.29 35.2842L300.266 35.3818C300.266 35.6097 300.371 36.098 300.583 36.8467C300.795 37.5954 301.071 38.3197 301.413 39.0195C301.755 39.7194 302.137 40.1589 302.561 40.3379C302.772 40.403 303.008 40.4355 303.269 40.4355C304.994 40.4355 307.5 39.0846 310.788 36.3828C312.09 35.3086 313.189 34.3402 314.084 33.4775L315.134 32.3545C316.208 31.2803 317.038 30.7432 317.624 30.7432C318.08 30.7432 318.356 31.0931 318.454 31.793C318.454 31.9232 318.405 32.0697 318.308 32.2324C318.226 32.3952 318.047 32.6312 317.771 32.9404C317.494 33.2497 317.087 33.6891 316.55 34.2588C315.948 34.9424 315.093 35.7969 313.986 36.8223C312.896 37.8314 311.659 38.8486 310.275 39.874C308.892 40.8831 307.476 41.7458 306.027 42.4619C304.595 43.1618 303.26 43.5117 302.023 43.5117C300.07 43.5117 298.687 42.4782 297.873 40.4111L296.994 38.2139C295.79 39.7438 294.878 40.9238 294.26 41.7539C293.511 42.8118 292.632 44.2035 291.623 45.9287C290.988 47.1006 290.451 47.9144 290.012 48.3701C289.556 48.8421 289.108 49.0781 288.669 49.0781ZM317.796 42.3154H317.503C316.526 42.3154 315.656 42.0957 314.891 41.6562C314.109 41.2005 313.605 40.3298 313.377 39.0439C313.312 38.6533 313.279 38.2546 313.279 37.8477C313.279 36.6432 313.556 35.3574 314.109 33.9902C315.232 31.4186 316.689 29.5713 318.479 28.4482C319.456 27.8298 320.368 27.5205 321.214 27.5205C321.946 27.5205 322.63 27.7402 323.265 28.1797C324.078 28.7493 324.485 29.5062 324.485 30.4502C324.485 31.9801 323.444 33.9821 321.36 36.4561C320.384 37.6605 319.896 38.3685 319.896 38.5801C319.896 38.7103 319.985 38.7754 320.164 38.7754C320.848 38.7754 322.174 38.3197 324.144 37.4082C326.113 36.4967 328.188 35.4225 330.369 34.1855C332.566 32.9323 334.438 31.736 335.984 30.5967C336.391 30.32 336.717 30.1816 336.961 30.1816C337.059 30.1816 337.148 30.2061 337.229 30.2549C337.409 30.3851 337.498 30.6048 337.498 30.9141C337.498 31.0117 337.474 31.207 337.425 31.5C337.376 31.793 337.156 32.1917 336.766 32.6963C335.626 33.8682 333.893 35.1947 331.565 36.6758C329.254 38.1406 326.829 39.4264 324.29 40.5332C321.767 41.6237 319.603 42.2178 317.796 42.3154ZM317.405 36.5537C317.698 36.5537 318.195 36.1061 318.895 35.2109C319.546 34.3809 320.075 33.5264 320.481 32.6475C320.758 32.0127 320.896 31.5407 320.896 31.2314C320.896 30.9222 320.726 30.7676 320.384 30.7676C320.107 30.7676 319.725 30.9629 319.236 31.3535C318.748 31.7441 318.3 32.3952 317.894 33.3066C317.373 34.6087 317.112 35.5202 317.112 36.041C317.112 36.3828 317.21 36.5537 317.405 36.5537ZM365.502 45.0986C363.077 45.0986 361.343 44.2848 360.302 42.6572C359.179 40.9157 358.617 38.4824 358.617 35.3574C358.617 34.0065 358.568 33.0951 358.471 32.623C358.373 32.151 358.161 31.915 357.836 31.915C356.908 31.915 354.271 33.4531 349.926 36.5293C347.842 38.0267 346.223 38.7754 345.067 38.7754C344.351 38.7754 343.879 38.4743 343.651 37.8721C343.57 37.5954 343.497 36.9036 343.432 35.7969C343.383 35.097 343.326 34.4622 343.261 33.8926C343.196 33.3229 343.082 33.0381 342.919 33.0381C342.772 33.0381 342.309 33.3148 341.527 33.8682C340.762 34.4215 339.875 35.1051 338.866 35.9189C336.327 37.8232 334.512 38.7754 333.422 38.7754C332.836 38.7754 332.535 38.4743 332.519 37.8721C332.519 37.6442 332.665 37.0908 332.958 36.2119C333.235 35.333 333.576 34.3646 333.983 33.3066C334.374 32.2487 334.708 31.4512 334.984 30.9141C335.261 30.377 335.53 30.027 335.79 29.8643C336.05 29.6852 336.36 29.5957 336.718 29.5957C337.19 29.5957 337.507 29.6852 337.67 29.8643C337.849 30.0433 337.938 30.2874 337.938 30.5967C337.938 31.0036 337.849 31.4919 337.67 32.0615L337.45 33.0381L339.916 31.6221C341.641 30.6455 343.098 30.1572 344.286 30.1572C345.214 30.1572 345.938 30.4502 346.459 31.0361C346.996 31.6058 347.265 32.4603 347.265 33.5996C347.265 33.9414 347.281 34.2018 347.313 34.3809C347.362 34.5599 347.468 34.6494 347.631 34.6494C348.038 34.6494 349.063 34.0146 350.707 32.7451C354.32 30.2712 357.152 29.0342 359.203 29.0342C360.391 29.0342 361.238 29.4655 361.742 30.3281C361.921 30.7025 362.1 31.3535 362.279 32.2812C362.458 33.209 362.589 34.1937 362.67 35.2354C362.833 37.6768 363.199 39.3532 363.769 40.2646C364.338 41.1598 365.315 41.6074 366.698 41.6074C368.879 41.6074 371.98 40.7122 376 38.9219C380.02 37.1315 384.114 34.8122 388.28 31.9639C390.966 30.0433 392.707 29.083 393.505 29.083C393.847 29.083 394.091 29.2376 394.237 29.5469C394.335 29.7422 394.384 29.9456 394.384 30.1572C394.384 30.6292 394.05 31.1908 393.383 31.8418C392.732 32.4766 391.658 33.3066 390.16 34.332C385.131 37.7826 380.451 40.4437 376.122 42.3154C371.809 44.1709 368.269 45.0986 365.502 45.0986ZM400.366 44.0488C399.162 44.0488 398.096 43.821 397.168 43.3652C396.257 42.9095 395.605 42.1852 395.215 41.1924C394.873 40.2321 394.678 38.8649 394.629 37.0908C394.287 37.2699 393.831 37.5791 393.262 38.0186C392.79 38.3766 392.269 38.7428 391.699 39.1172C391.13 39.4915 390.527 39.8171 389.893 40.0938C389.258 40.3542 388.623 40.4844 387.988 40.4844C387.061 40.4844 386.222 40.1426 385.474 39.459C384.904 38.873 384.619 38.2139 384.619 37.4814C384.619 36.5374 384.961 35.5609 385.645 34.5518C386.312 33.5426 387.069 32.6393 387.915 31.8418C388.745 31.0443 389.453 30.4827 390.039 30.1572C390.625 29.8154 391.276 29.5632 391.992 29.4004C392.708 29.2214 393.4 29.1318 394.067 29.1318C394.751 29.1318 395.353 29.2295 395.874 29.4248C396.395 29.6201 396.672 29.9538 396.704 30.4258C396.704 30.735 396.541 30.971 396.216 31.1338C395.907 31.2803 395.361 31.4023 394.58 31.5C393.636 31.6465 392.692 32.0778 391.748 32.7939C390.82 33.5101 390.039 34.2751 389.404 35.0889C388.77 35.9027 388.452 36.5049 388.452 36.8955C388.452 37.0908 388.558 37.1885 388.77 37.1885C389.095 37.1885 389.559 36.9932 390.161 36.6025C390.747 36.2119 391.398 35.7562 392.114 35.2354C393.026 34.5355 393.945 33.9007 394.873 33.3311C395.801 32.7451 396.59 32.4521 397.241 32.4521C398.136 32.4521 398.584 33.1846 398.584 34.6494C398.584 35.0563 398.551 35.5283 398.486 36.0654C398.405 36.6839 398.364 37.2373 398.364 37.7256C398.364 38.8812 398.584 39.7275 399.023 40.2646C399.479 40.8018 400.212 41.0703 401.221 41.0703H401.392C404.142 40.8913 407.137 40.0042 410.376 38.4092C413.615 36.7979 416.349 35.097 418.579 33.3066L419.458 32.5742C420.321 31.8581 420.98 31.3454 421.436 31.0361C421.891 30.7106 422.323 30.5479 422.729 30.5479C422.99 30.5479 423.275 30.6048 423.584 30.7188C423.828 30.8164 423.95 30.9792 423.95 31.207C423.95 31.4349 423.828 31.7035 423.584 32.0127C420.101 35.512 416.423 38.3034 412.549 40.3867C408.675 42.4701 404.989 43.6745 401.489 44C401.099 44.0326 400.724 44.0488 400.366 44.0488ZM417.75 44.0244C417.099 44.0244 416.57 43.7396 416.163 43.1699C416.017 42.9583 415.943 42.641 415.943 42.2178C415.943 40.7855 416.765 38.3604 418.409 34.9424C419.321 33.0706 420.037 31.8174 420.558 31.1826C421.078 30.5316 421.664 30.2061 422.315 30.2061C423.097 30.2061 423.487 30.6211 423.487 31.4512C423.487 32.1999 423.162 33.3229 422.511 34.8203C421.86 36.3014 421.534 37.1315 421.534 37.3105H421.559C421.624 37.3105 421.917 37.1559 422.438 36.8467C422.958 36.5374 423.585 36.1305 424.317 35.626C426.661 33.9658 428.565 33.1357 430.03 33.1357C431.902 33.1357 433.09 34.4867 433.595 37.1885C433.806 38.4417 434.026 39.3451 434.254 39.8984C434.498 40.4518 434.889 40.7285 435.426 40.7285C435.979 40.7285 436.793 40.4681 437.867 39.9473C439.544 39.1823 441.684 37.9209 444.288 36.1631C446.909 34.389 448.992 32.8021 450.538 31.4023C451.531 30.6211 452.402 30.2305 453.15 30.2305C453.753 30.2305 454.07 30.4746 454.103 30.9629C454.103 31.3861 453.769 31.9069 453.102 32.5254C449.765 35.9271 446.445 38.6045 443.141 40.5576C439.837 42.4945 436.996 43.4629 434.62 43.4629C433.823 43.4629 433.098 43.3408 432.447 43.0967C431.503 42.6735 430.868 41.9248 430.543 40.8506C430.217 39.7601 430.014 38.7184 429.933 37.7256C429.868 37.2048 429.794 36.7816 429.713 36.4561C429.648 36.1143 429.542 35.9434 429.396 35.9434C428.614 35.9434 426.466 37.6035 422.95 40.9238C420.737 42.9909 419.003 44.0244 417.75 44.0244Z" fill="white"/>
<path d="M13.2168 60.7002C11.7682 60.7002 10.7266 60.2119 10.0918 59.2354C9.83138 58.8285 9.70117 58.3076 9.70117 57.6729C9.70117 56.6149 10.1732 55.0036 11.1172 52.8389C12.0612 50.6904 14.4538 47.362 18.2949 42.8535C16.6836 42.0234 14.9583 41.234 13.1191 40.4854C11.0521 39.6553 9.1071 38.7601 7.28418 37.7998C5.47754 36.8232 4.06966 35.6351 3.06055 34.2354C2.32812 33.2262 1.96191 32.0381 1.96191 30.6709C1.96191 30.1663 2.07585 29.263 2.30371 27.9609C2.54785 26.6589 3.82552 24.5104 6.13672 21.5156C8.20378 18.8952 10.7347 16.3154 13.7295 13.7764C16.7243 11.2373 19.8981 8.95866 23.251 6.94043C26.6038 4.90592 29.8346 3.35156 32.9434 2.27734C35.3197 1.46354 37.46 1.05664 39.3643 1.05664C39.9502 1.05664 40.5117 1.09733 41.0488 1.17871C43.832 1.69954 45.6387 2.75749 46.4688 4.35254C46.9733 5.3291 47.2256 6.40332 47.2256 7.5752C47.2256 8.29134 47.0465 9.3737 46.6885 10.8223C46.3467 12.2546 45.5736 13.9635 44.3691 15.9492C43.181 17.9349 41.944 19.5951 40.6582 20.9297C39.3887 22.248 38.4365 22.9072 37.8018 22.9072C37.5576 22.9072 37.3135 22.8665 37.0693 22.7852C36.8415 22.7038 36.6462 22.6143 36.4834 22.5166C36.3369 22.4027 36.2637 22.3132 36.2637 22.248C36.2637 22.0365 37.0368 20.9297 38.583 18.9277C40.7314 16.2422 42.2858 13.6136 43.2461 11.042C43.6042 10.0817 43.7832 9.1865 43.7832 8.35645C43.7832 7.88444 43.6693 7.24154 43.4414 6.42773C43.2298 5.59766 42.237 4.95475 40.4629 4.49902C40.0397 4.41764 39.5758 4.37695 39.0713 4.37695C37.0856 4.37695 34.3757 5.0931 30.9414 6.52539C27.5072 7.94141 23.7637 10.0817 19.7109 12.9463C15.6582 15.7946 12.1833 18.9277 9.28613 22.3457C7.18652 24.722 5.90885 26.7158 5.45312 28.3271C5.29036 28.9131 5.20898 29.4746 5.20898 30.0117C5.20898 30.9232 5.51823 31.8346 6.13672 32.7461C6.77148 33.6413 7.85384 34.4958 9.38379 35.3096C10.9137 36.1071 12.6064 36.8721 14.4619 37.6045C16.1872 38.2881 17.8717 39.0449 19.5156 39.875C19.6947 39.9727 19.8493 40.0622 19.9795 40.1436C20.126 40.2249 20.2318 40.2819 20.2969 40.3145C20.362 40.347 20.4271 40.3633 20.4922 40.3633C20.6061 40.3633 20.7363 40.347 20.8828 40.3145C21.0293 40.2656 21.2327 40.2087 21.4932 40.1436C21.8675 40.0459 22.2012 39.9971 22.4941 39.9971C22.8359 39.9971 23.1045 40.054 23.2998 40.168C23.5114 40.2819 23.6172 40.4365 23.6172 40.6318C23.6172 40.876 23.487 41.1852 23.2266 41.5596C23.1615 41.641 23.1289 41.7305 23.1289 41.8281C23.1289 41.9258 23.1777 42.056 23.2754 42.2188C23.373 42.3652 23.6172 42.6175 24.0078 42.9756C25.9772 44.9287 26.9619 46.8818 26.9619 48.835C26.9619 48.9163 26.9375 49.486 26.8887 50.5439C26.8398 51.6182 26.083 53.0016 24.6182 54.6943C23.1696 56.4033 21.4443 57.7949 19.4424 58.8691C17.1637 60.0898 15.0885 60.7002 13.2168 60.7002ZM14.4131 57.7461C14.8363 57.7461 15.5036 57.5833 16.415 57.2578C17.3428 56.9323 18.474 56.1999 19.8086 55.0605C21.1432 53.9375 22.1361 52.6354 22.7871 51.1543C23.0964 50.4707 23.251 49.779 23.251 49.0791C23.251 47.9235 22.7952 46.7028 21.8838 45.417C21.542 44.9287 21.2083 44.6846 20.8828 44.6846C20.6712 44.6846 20.4515 44.8066 20.2236 45.0508C17.001 48.7129 14.8932 51.5124 13.9004 53.4492C13.2331 54.735 12.8994 55.7197 12.8994 56.4033C12.8994 56.7614 12.9889 57.0381 13.168 57.2334C13.4609 57.5752 13.876 57.7461 14.4131 57.7461ZM40.7324 39.8262C39.0723 39.8262 37.9818 38.6055 37.4609 36.1641C37.2168 35.0573 37.0459 34.0319 36.9482 33.0879C36.7041 31.623 36.46 30.8906 36.2158 30.8906C36.0042 30.8906 35.4671 31.2731 34.6045 32.0381C33.7581 32.7868 32.863 33.6413 31.9189 34.6016C30.9749 35.5618 30.2181 36.4163 29.6484 37.165C28.7858 38.2881 28.0208 38.8496 27.3535 38.8496H27.1826C26.7106 38.7682 26.3525 38.5973 26.1084 38.3369C25.848 38.0765 25.7178 37.694 25.7178 37.1895V36.9941C25.734 35.4805 27.3128 31.1022 30.4541 23.8594C31.626 21.0762 32.5456 18.944 33.2129 17.4629C33.8965 15.9818 34.4417 14.9564 34.8486 14.3867C35.2718 13.8008 35.638 13.4753 35.9473 13.4102C36.2565 13.3288 36.5495 13.2881 36.8262 13.2881C36.8913 13.2881 37.0133 13.2962 37.1924 13.3125C37.3877 13.3288 37.5505 13.4102 37.6807 13.5566L37.7051 13.6787C37.7051 14.0205 37.4202 14.9727 36.8506 16.5352C36.2972 18.0977 35.4997 20.0996 34.458 22.541C33.4163 24.9824 32.5781 27.0251 31.9434 28.6689C31.3086 30.2965 30.9912 31.1917 30.9912 31.3545L32.8467 30.2314C33.6117 29.7269 34.3522 29.2793 35.0684 28.8887C35.9147 28.4167 36.6634 28.1807 37.3145 28.1807C38.9746 28.1807 39.9674 29.6536 40.293 32.5996C40.3906 33.3483 40.529 34.0807 40.708 34.7969C40.9033 35.4967 41.0986 36.0013 41.2939 36.3105C41.4893 36.6035 41.7904 36.75 42.1973 36.75C43.0436 36.75 44.2969 36.1641 45.957 34.9922C47.6172 33.804 49.3587 32.3799 51.1816 30.7197L51.6699 30.2803C52.1257 29.9222 52.5732 29.7432 53.0127 29.7432C53.3545 29.7432 53.6312 29.8083 53.8428 29.9385C53.9242 30.0036 53.9648 30.085 53.9648 30.1826C53.9648 30.3779 53.8184 30.6872 53.5254 31.1104C52.9883 31.9079 51.9873 33.0228 50.5225 34.4551C48.4554 36.457 46.4372 37.9219 44.4678 38.8496C43.0518 39.5007 41.8066 39.8262 40.7324 39.8262ZM47.8867 42.9023C47.2845 42.9023 46.7148 42.7884 46.1777 42.5605C45.6243 42.3327 45.1279 41.9421 44.6885 41.3887C44.249 40.8353 44.0293 40.2087 44.0293 39.5088C44.0293 37.6859 45.4209 35.3421 48.2041 32.4775C49.0993 31.5173 49.9701 30.6383 50.8164 29.8408C52.3138 28.4248 53.2741 27.7168 53.6973 27.7168C53.8926 27.7168 54.0879 27.8226 54.2832 28.0342C54.4785 28.2295 54.7389 28.5469 55.0645 28.9863C55.1784 29.1328 55.2354 29.2793 55.2354 29.4258C55.2354 29.7025 55.1051 29.9873 54.8447 30.2803C54.6982 30.4919 54.5924 30.6953 54.5273 30.8906C55.4062 32.4368 56.6839 33.21 58.3604 33.21C59.3532 33.21 60.3949 32.9902 61.4854 32.5508C63.1618 31.8672 65.1475 30.7523 67.4424 29.2061C68.7933 28.3109 69.599 27.8633 69.8594 27.8633C70.0872 27.8633 70.2744 27.9609 70.4209 28.1562C70.5674 28.3516 70.6406 28.5713 70.6406 28.8154C70.6406 29.0596 70.5674 29.3037 70.4209 29.5479C69.2327 31.2568 67.6133 32.7868 65.5625 34.1377C63.5117 35.4723 61.1924 36.3105 58.6045 36.6523C58.2464 36.6849 57.9453 36.7012 57.7012 36.7012C57.4733 36.7012 57.2861 36.7256 57.1396 36.7744C57.0094 36.807 56.8792 36.9046 56.749 37.0674C56.6351 37.2301 56.4723 37.4987 56.2607 37.873C55.6097 38.9473 54.6087 39.9889 53.2578 40.998C52.0046 41.9258 50.6374 42.5199 49.1562 42.7803C48.7331 42.8617 48.3099 42.9023 47.8867 42.9023ZM48.1064 40.1924C48.4645 40.1924 49.1562 39.8343 50.1816 39.1182C50.8652 38.6299 51.3779 38.0765 51.7197 37.458C52.0615 36.8395 52.2324 36.2861 52.2324 35.7979C52.2324 35.277 52.029 34.9027 51.6221 34.6748L51.3535 34.9434C51.0117 35.2689 50.4095 35.9525 49.5469 36.9941C48.4076 38.4753 47.8379 39.4437 47.8379 39.8994C47.8379 40.0947 47.9274 40.1924 48.1064 40.1924ZM68.542 50.3975C67.9235 50.3975 67.4922 50.2103 67.248 49.8359C67.1829 49.6732 67.1504 49.4941 67.1504 49.2988C67.1504 48.6315 67.5329 47.6224 68.2979 46.2715C69.0791 44.9368 70.3079 43.3825 71.9844 41.6084C73.3841 40.1761 74.3607 39.0286 74.9141 38.166C75.4674 37.2871 75.8825 36.2373 76.1592 35.0166C76.4684 33.7959 76.623 32.8682 76.623 32.2334C76.623 31.5335 76.4115 31.1836 75.9883 31.1836C75.5163 31.1836 74.7839 31.5417 73.791 32.2578C73.1888 32.6647 72.5703 33.1449 71.9355 33.6982C71.3171 34.2516 70.8369 34.748 70.4951 35.1875C69.6162 36.1803 68.6641 36.6768 67.6387 36.6768C66.9225 36.6768 66.4342 36.3675 66.1738 35.749V35.6025C66.1738 35.1305 66.4017 34.097 66.8574 32.502C67.4434 30.5326 68.6966 26.7402 70.6172 21.125C72.0983 16.763 73.0342 14.0693 73.4248 13.0439C73.9456 11.6117 74.2956 10.7653 74.4746 10.5049C74.8327 10.0166 75.2965 9.7725 75.8662 9.7725H76.3301C76.6393 9.7725 76.9079 10.0166 77.1357 10.5049C77.1683 10.5863 77.1846 10.7083 77.1846 10.8711C77.1846 11.1966 77.0137 11.9779 76.6719 13.2148C76.3952 14.2402 75.6465 16.6654 74.4258 20.4902C72.4238 26.5775 71.4229 29.7269 71.4229 29.9385C71.4229 30.0036 71.4717 30.0361 71.5693 30.0361C71.8623 30.0361 72.3913 29.8571 73.1562 29.499C74.2956 28.8805 75.4674 28.5713 76.6719 28.5713C77.7135 28.5713 78.5762 28.9049 79.2598 29.5723C79.8132 30.1257 80.0898 30.9883 80.0898 32.1602C80.0898 32.5671 80.0573 33.0065 79.9922 33.4785L79.6504 35.5781L82.5557 33.8936C85.0459 32.445 87.4059 31.2161 89.6357 30.207C91.7516 29.2467 93.127 28.7666 93.7617 28.7666H93.8838C94.4209 28.9456 94.6895 29.2793 94.6895 29.7676C94.6895 30.2233 94.2907 30.6383 93.4932 31.0127C92.9723 31.2406 91.9144 31.7858 90.3193 32.6484C88.7406 33.5111 86.9909 34.5039 85.0703 35.627C82.9056 36.8639 81.3024 37.8324 80.2607 38.5322C79.2191 39.2321 78.3971 39.9482 77.7949 40.6807C77.1927 41.3968 76.4847 42.4141 75.6709 43.7324C74.9222 44.9368 74.1654 46.0436 73.4004 47.0527C72.6354 48.0781 72.0576 48.778 71.667 49.1523C70.902 49.8034 70.0557 50.2021 69.1279 50.3486C68.9163 50.3812 68.721 50.3975 68.542 50.3975ZM88.0742 42.9023C87.472 42.9023 86.9023 42.7884 86.3652 42.5605C85.8118 42.3327 85.3154 41.9421 84.876 41.3887C84.4365 40.8353 84.2168 40.2087 84.2168 39.5088C84.2168 37.6859 85.6084 35.3421 88.3916 32.4775C89.2868 31.5173 90.1576 30.6383 91.0039 29.8408C92.5013 28.4248 93.4616 27.7168 93.8848 27.7168C94.0801 27.7168 94.2754 27.8226 94.4707 28.0342C94.666 28.2295 94.9264 28.5469 95.252 28.9863C95.3659 29.1328 95.4229 29.2793 95.4229 29.4258C95.4229 29.7025 95.2926 29.9873 95.0322 30.2803C94.8857 30.4919 94.7799 30.6953 94.7148 30.8906C95.5938 32.4368 96.8714 33.21 98.5479 33.21C99.5407 33.21 100.582 32.9902 101.673 32.5508C103.349 31.8672 105.335 30.7523 107.63 29.2061C108.981 28.3109 109.786 27.8633 110.047 27.8633C110.275 27.8633 110.462 27.9609 110.608 28.1562C110.755 28.3516 110.828 28.5713 110.828 28.8154C110.828 29.0596 110.755 29.3037 110.608 29.5479C109.42 31.2568 107.801 32.7868 105.75 34.1377C103.699 35.4723 101.38 36.3105 98.792 36.6523C98.4339 36.6849 98.1328 36.7012 97.8887 36.7012C97.6608 36.7012 97.4736 36.7256 97.3271 36.7744C97.1969 36.807 97.0667 36.9046 96.9365 37.0674C96.8226 37.2301 96.6598 37.4987 96.4482 37.873C95.7972 38.9473 94.7962 39.9889 93.4453 40.998C92.1921 41.9258 90.8249 42.5199 89.3438 42.7803C88.9206 42.8617 88.4974 42.9023 88.0742 42.9023ZM88.2939 40.1924C88.652 40.1924 89.3438 39.8343 90.3691 39.1182C91.0527 38.6299 91.5654 38.0765 91.9072 37.458C92.249 36.8395 92.4199 36.2861 92.4199 35.7979C92.4199 35.277 92.2165 34.9027 91.8096 34.6748L91.541 34.9434C91.1992 35.2689 90.597 35.9525 89.7344 36.9941C88.5951 38.4753 88.0254 39.4437 88.0254 39.8994C88.0254 40.0947 88.1149 40.1924 88.2939 40.1924ZM105.849 43.3174C105.328 43.3174 104.831 43.1628 104.359 42.8535C103.887 42.528 103.57 42.1536 103.407 41.7305C103.244 41.291 103.163 40.8434 103.163 40.3877C103.163 39.9645 103.196 39.5658 103.261 39.1914C103.505 37.5964 103.92 36.0664 104.506 34.6016C105.092 33.1204 105.751 31.8997 106.483 30.9395C107.2 29.9792 107.867 29.499 108.485 29.499C109.006 29.499 109.389 29.6699 109.633 30.0117C109.893 30.3372 110.023 30.7279 110.023 31.1836C110.023 31.5905 109.918 32.0055 109.706 32.4287C109.429 32.9007 109.096 33.5924 108.705 34.5039C108.314 35.4154 107.956 36.3105 107.631 37.1895C107.322 38.0684 107.167 38.6543 107.167 38.9473C107.167 39.0286 107.183 39.0693 107.216 39.0693C107.346 39.0693 107.81 38.7357 108.607 38.0684C109.405 37.401 110.349 36.5465 111.439 35.5049C112.937 34.0889 114.044 33.1367 114.76 32.6484C115.492 32.1439 116.143 31.8916 116.713 31.8916C117.494 31.9404 117.982 32.0544 118.178 32.2334C118.389 32.3962 118.495 32.8112 118.495 33.4785L118.422 35.7246C118.422 36.2454 118.544 36.5059 118.788 36.5059C118.902 36.5059 119.065 36.457 119.276 36.3594C120.839 35.6107 122.19 34.7806 123.329 33.8691C124.485 32.9577 125.673 31.859 126.894 30.5732C127.268 30.1175 127.577 29.8896 127.821 29.8896C127.935 29.8896 128.041 29.9466 128.139 30.0605C128.676 30.4837 128.944 30.9313 128.944 31.4033C128.944 31.6149 128.887 31.859 128.773 32.1357C128.383 33.0635 127.691 34.0075 126.698 34.9678C125.705 35.9118 124.688 36.7581 123.646 37.5068C122.605 38.2555 121.815 38.7926 121.278 39.1182C119.83 39.932 118.536 40.3389 117.396 40.3389C116.452 40.3389 115.696 40.0459 115.126 39.46C114.979 39.2646 114.866 39.0612 114.784 38.8496C114.719 38.6217 114.638 38.4346 114.54 38.2881C114.459 38.1416 114.32 38.0684 114.125 38.0684C113.734 38.0684 112.953 38.6055 111.781 39.6797C110.414 40.9167 109.258 41.8363 108.314 42.4385C107.37 43.0244 106.549 43.3174 105.849 43.3174ZM145.62 43.0488C144.416 43.0488 143.35 42.821 142.422 42.3652C141.51 41.9095 140.859 41.1852 140.469 40.1924C140.127 39.2321 139.932 37.8649 139.883 36.0908C139.541 36.2699 139.085 36.5791 138.516 37.0186C138.044 37.3766 137.523 37.7428 136.953 38.1172C136.383 38.4915 135.781 38.8171 135.146 39.0938C134.512 39.3542 133.877 39.4844 133.242 39.4844C132.314 39.4844 131.476 39.1426 130.728 38.459C130.158 37.873 129.873 37.2139 129.873 36.4814C129.873 35.5374 130.215 34.5609 130.898 33.5518C131.566 32.5426 132.323 31.6393 133.169 30.8418C133.999 30.0443 134.707 29.4827 135.293 29.1572C135.879 28.8154 136.53 28.5632 137.246 28.4004C137.962 28.2214 138.654 28.1318 139.321 28.1318C140.005 28.1318 140.607 28.2295 141.128 28.4248C141.649 28.6201 141.925 28.9538 141.958 29.4258C141.958 29.735 141.795 29.971 141.47 30.1338C141.16 30.2803 140.615 30.4023 139.834 30.5C138.89 30.6465 137.946 31.0778 137.002 31.7939C136.074 32.5101 135.293 33.2751 134.658 34.0889C134.023 34.9027 133.706 35.5049 133.706 35.8955C133.706 36.0908 133.812 36.1885 134.023 36.1885C134.349 36.1885 134.813 35.9932 135.415 35.6025C136.001 35.2119 136.652 34.7562 137.368 34.2354C138.28 33.5355 139.199 32.9007 140.127 32.3311C141.055 31.7451 141.844 31.4521 142.495 31.4521C143.39 31.4521 143.838 32.1846 143.838 33.6494C143.838 34.0563 143.805 34.5283 143.74 35.0654C143.659 35.6839 143.618 36.2373 143.618 36.7256C143.618 37.8812 143.838 38.7275 144.277 39.2646C144.733 39.8018 145.465 40.0703 146.475 40.0703H146.646C149.396 39.8913 152.391 39.0042 155.63 37.4092C158.869 35.7979 161.603 34.097 163.833 32.3066L164.712 31.5742C165.575 30.8581 166.234 30.3454 166.689 30.0361C167.145 29.7106 167.576 29.5479 167.983 29.5479C168.244 29.5479 168.529 29.6048 168.838 29.7188C169.082 29.8164 169.204 29.9792 169.204 30.207C169.204 30.4349 169.082 30.7035 168.838 31.0127C165.355 34.512 161.676 37.3034 157.803 39.3867C153.929 41.4701 150.243 42.6745 146.743 43C146.353 43.0326 145.978 43.0488 145.62 43.0488ZM169.571 43.4883C169.278 43.4883 169.002 43.4639 168.741 43.415C167.765 43.2197 167 42.7803 166.446 42.0967C165.893 41.3968 165.51 40.5342 165.299 39.5088C165.071 38.4671 164.957 37.3604 164.957 36.1885C164.957 34.5609 165.095 32.9495 165.372 31.3545C165.649 29.7594 165.934 28.4655 166.227 27.4727C167.008 24.6732 168.098 21.3366 169.498 17.4629C170.914 13.5729 172.298 9.9922 173.648 6.7207C175.016 3.44922 176.017 1.34961 176.651 0.42188C176.896 0.0963505 177.213 -0.147785 177.604 -0.310546C177.994 -0.473306 178.377 -0.554688 178.751 -0.554688C179.272 -0.554688 179.662 -0.375651 179.923 -0.0175775C179.939 0.0149705 179.947 0.0719404 179.947 0.15332C179.947 0.47884 179.793 1.08919 179.483 1.98438C179.19 2.87956 178.808 3.88053 178.336 4.9873C176.676 8.84473 175.016 13.0114 173.355 17.4873C171.712 21.9632 170.564 25.3975 169.913 27.79C169.164 30.7686 168.79 33.332 168.79 35.4805C168.79 37.043 168.977 38.2962 169.352 39.2402C169.742 40.168 170.304 40.6318 171.036 40.6318C173.624 40.6318 178.181 37.2546 184.708 30.5C185.408 29.8001 185.839 29.3851 186.002 29.2549C186.165 29.1084 186.327 29.0352 186.49 29.0352C186.734 29.0514 186.938 29.1898 187.101 29.4502C187.28 29.7106 187.369 29.9954 187.369 30.3047C187.369 31.0371 186.222 32.5426 183.927 34.8213C182.543 36.1885 180.997 37.5312 179.288 38.8496C177.579 40.168 175.862 41.2747 174.137 42.1699C172.428 43.0488 170.906 43.4883 169.571 43.4883ZM186.491 41.3154H186.198C185.222 41.3154 184.351 41.0957 183.586 40.6562C182.805 40.2005 182.3 39.3298 182.072 38.0439C182.007 37.6533 181.975 37.2546 181.975 36.8477C181.975 35.6432 182.251 34.3574 182.805 32.9902C183.928 30.4186 185.384 28.5713 187.175 27.4482C188.151 26.8298 189.063 26.5205 189.909 26.5205C190.642 26.5205 191.325 26.7402 191.96 27.1797C192.774 27.7493 193.181 28.5062 193.181 29.4502C193.181 30.9801 192.139 32.9821 190.056 35.4561C189.079 36.6605 188.591 37.3685 188.591 37.5801C188.591 37.7103 188.68 37.7754 188.859 37.7754C189.543 37.7754 190.869 37.3197 192.839 36.4082C194.808 35.4967 196.883 34.4225 199.064 33.1855C201.262 31.9323 203.133 30.736 204.68 29.5967C205.087 29.32 205.412 29.1816 205.656 29.1816C205.754 29.1816 205.843 29.2061 205.925 29.2549C206.104 29.3851 206.193 29.6048 206.193 29.9141C206.193 30.0117 206.169 30.207 206.12 30.5C206.071 30.793 205.852 31.1917 205.461 31.6963C204.322 32.8682 202.588 34.1947 200.261 35.6758C197.95 37.1406 195.524 38.4264 192.985 39.5332C190.463 40.6237 188.298 41.2178 186.491 41.3154ZM186.101 35.5537C186.394 35.5537 186.89 35.1061 187.59 34.2109C188.241 33.3809 188.77 32.5264 189.177 31.6475C189.453 31.0127 189.592 30.5407 189.592 30.2314C189.592 29.9222 189.421 29.7676 189.079 29.7676C188.802 29.7676 188.42 29.9629 187.932 30.3535C187.443 30.7441 186.996 31.3952 186.589 32.3066C186.068 33.6087 185.808 34.5202 185.808 35.041C185.808 35.3828 185.905 35.5537 186.101 35.5537ZM218.744 60.7246C217.865 60.7246 217.198 60.3421 216.742 59.5771C216.417 59.04 216.254 58.4134 216.254 57.6973C216.254 56.8835 216.465 55.9557 216.889 54.9141C217.361 53.6771 218.142 52.3587 219.232 50.959C220.339 49.5592 222.056 48.3955 224.384 47.4678C224.547 47.4189 224.693 47.3864 224.823 47.3701C225.035 47.3376 225.23 47.2725 225.409 47.1748C225.8 46.9958 226.264 46.3447 226.801 45.2217C229.779 39.0205 234.784 25.1045 241.815 3.47363L242.401 1.74023C242.646 1.46354 242.914 1.3252 243.207 1.3252C243.321 1.3252 243.516 1.38216 243.793 1.49609C244.086 1.59375 244.403 1.87044 244.745 2.32617C245.087 2.76562 245.258 3.20508 245.258 3.64453C244.639 6.39518 243.321 10.7734 241.303 16.7793C239.301 22.7689 237.193 28.7178 234.979 34.626C232.766 40.5342 231.041 44.7008 229.804 47.126C231.285 47.2562 232.758 47.3213 234.223 47.3213C236.485 47.3213 239.089 47.1178 242.035 46.7109C244.981 46.3203 247.886 45.7425 250.751 44.9775C253.843 44.1637 256.122 43.5127 257.587 43.0244C257.929 42.9268 258.197 42.8779 258.393 42.8779C258.539 42.8779 258.645 42.9105 258.71 42.9756C258.808 43.0895 258.856 43.293 258.856 43.5859V44.1475C258.856 44.8799 258.132 45.5798 256.684 46.2471C255.251 46.9307 253.38 47.5492 251.068 48.1025C248.757 48.6559 246.251 49.1198 243.549 49.4941C239.122 50.1289 235.134 50.4463 231.586 50.4463C230.495 50.4463 229.462 50.4137 228.485 50.3486C227.981 50.9834 227.289 52.0332 226.41 53.498C224.148 57.388 222.089 59.6992 220.233 60.4316C219.68 60.627 219.184 60.7246 218.744 60.7246ZM219.818 57.5752C219.9 57.5752 220.071 57.502 220.331 57.3555C220.591 57.2253 221.202 56.4115 222.162 54.9141C223.285 53.0911 223.847 52.0088 223.847 51.667C223.847 51.4229 223.716 51.3008 223.456 51.3008C222.772 51.3008 222.138 51.6589 221.552 52.375C220.966 53.1074 220.494 53.9049 220.136 54.7676C219.745 55.7279 219.55 56.4928 219.55 57.0625C219.55 57.4043 219.639 57.5752 219.818 57.5752ZM274.556 41.9258C273.368 41.9258 272.521 41.348 272.017 40.1924C271.772 39.5576 271.65 38.8415 271.65 38.0439C271.65 36.9697 271.756 35.8955 271.968 34.8213C272.098 34.0563 272.163 33.4622 272.163 33.0391C272.163 32.9089 272.155 32.7949 272.139 32.6973C272.041 32.6973 271.593 32.9089 270.796 33.332C270.015 33.7389 269.079 34.2598 267.988 34.8945C266.589 35.7083 265.49 36.2943 264.692 36.6523C263.911 37.0104 263.244 37.1895 262.69 37.1895C262.251 37.1895 261.82 37.0837 261.396 36.8721C260.924 36.693 260.688 36.278 260.688 35.627C260.688 34.8132 261.071 33.4785 261.836 31.623C262.243 30.5977 262.609 29.8571 262.935 29.4014C263.244 28.9456 263.577 28.7178 263.936 28.7178C264.261 28.7178 264.627 28.8805 265.034 29.2061C265.376 29.3688 265.547 29.6536 265.547 30.0605C265.547 30.3861 265.441 30.8499 265.229 31.4521C264.92 32.2334 264.766 32.7786 264.766 33.0879C264.766 33.3158 264.847 33.4297 265.01 33.4297C265.221 33.4297 265.498 33.3402 265.84 33.1611C266.182 32.9658 266.58 32.7217 267.036 32.4287C267.508 32.1357 268.021 31.8346 268.574 31.5254C271.016 30.1257 272.733 29.4258 273.726 29.4258C274.279 29.4258 274.735 29.5967 275.093 29.9385C275.337 30.1338 275.516 30.3372 275.63 30.5488C275.744 30.7441 275.801 31.029 275.801 31.4033C275.801 31.9567 275.695 32.8193 275.483 33.9912C275.239 35.3258 275.117 36.3594 275.117 37.0918C275.117 37.694 275.199 38.1172 275.361 38.3613C275.54 38.6055 275.817 38.7275 276.191 38.7275C276.94 38.7275 278.714 38.1009 281.514 36.8477C283.581 35.9362 285.697 34.9352 287.861 33.8447C290.042 32.7542 291.759 31.8265 293.013 31.0615C294.38 30.2477 295.316 29.8408 295.82 29.8408C296.113 29.8408 296.309 29.9385 296.406 30.1338C296.504 30.3128 296.553 30.5488 296.553 30.8418C296.553 31.3301 295.747 32.1276 294.136 33.2344C292.541 34.3411 290.547 35.513 288.154 36.75C285.762 37.987 283.312 39.0938 280.806 40.0703C279.325 40.6725 278.079 41.1364 277.07 41.4619C276.077 41.7712 275.239 41.9258 274.556 41.9258ZM289.669 48.0781C289.311 47.9316 289.042 47.7445 288.863 47.5166C288.684 47.2887 288.595 46.9714 288.595 46.5645C288.595 46.0111 288.741 45.238 289.034 44.2451C289.327 43.2686 289.75 41.9583 290.304 40.3145L291.769 35.7979C293.201 31.4196 294.389 27.7982 295.333 24.9336C296.293 22.069 297.075 19.7985 297.677 18.1221C298.295 16.4456 298.792 15.2168 299.166 14.4355C299.557 13.638 299.89 13.1335 300.167 12.9219C300.444 12.7103 300.737 12.6045 301.046 12.6045C301.518 12.6045 301.868 12.6696 302.096 12.7998C302.324 12.9137 302.438 13.1742 302.438 13.5811C302.438 14.0693 302.275 14.8343 301.949 15.876C301.624 16.9014 301.144 18.3255 300.509 20.1484L299.361 23.5176C297.717 28.4004 296.725 31.3952 296.383 32.502C295.895 34.0319 295.65 34.9922 295.65 35.3828C295.65 35.5293 295.683 35.6025 295.748 35.6025C295.96 35.6025 296.432 35.1631 297.164 34.2842C298.678 32.624 300.118 31.2324 301.485 30.1094C302.674 29.2142 303.601 28.7666 304.269 28.7666C304.822 28.7666 305.156 29.0352 305.27 29.5723C305.27 29.7839 305.123 30.0524 304.83 30.3779C304.537 30.7035 304.098 31.1429 303.512 31.6963C302.535 32.5915 301.795 33.4541 301.29 34.2842L301.266 34.3818C301.266 34.6097 301.371 35.098 301.583 35.8467C301.795 36.5954 302.071 37.3197 302.413 38.0195C302.755 38.7194 303.137 39.1589 303.561 39.3379C303.772 39.403 304.008 39.4355 304.269 39.4355C305.994 39.4355 308.5 38.0846 311.788 35.3828C313.09 34.3086 314.189 33.3402 315.084 32.4775L316.134 31.3545C317.208 30.2803 318.038 29.7432 318.624 29.7432C319.08 29.7432 319.356 30.0931 319.454 30.793C319.454 30.9232 319.405 31.0697 319.308 31.2324C319.226 31.3952 319.047 31.6312 318.771 31.9404C318.494 32.2497 318.087 32.6891 317.55 33.2588C316.948 33.9424 316.093 34.7969 314.986 35.8223C313.896 36.8314 312.659 37.8486 311.275 38.874C309.892 39.8831 308.476 40.7458 307.027 41.4619C305.595 42.1618 304.26 42.5117 303.023 42.5117C301.07 42.5117 299.687 41.4782 298.873 39.4111L297.994 37.2139C296.79 38.7438 295.878 39.9238 295.26 40.7539C294.511 41.8118 293.632 43.2035 292.623 44.9287C291.988 46.1006 291.451 46.9144 291.012 47.3701C290.556 47.8421 290.108 48.0781 289.669 48.0781ZM318.796 41.3154H318.503C317.526 41.3154 316.656 41.0957 315.891 40.6562C315.109 40.2005 314.605 39.3298 314.377 38.0439C314.312 37.6533 314.279 37.2546 314.279 36.8477C314.279 35.6432 314.556 34.3574 315.109 32.9902C316.232 30.4186 317.689 28.5713 319.479 27.4482C320.456 26.8298 321.368 26.5205 322.214 26.5205C322.946 26.5205 323.63 26.7402 324.265 27.1797C325.078 27.7493 325.485 28.5062 325.485 29.4502C325.485 30.9801 324.444 32.9821 322.36 35.4561C321.384 36.6605 320.896 37.3685 320.896 37.5801C320.896 37.7103 320.985 37.7754 321.164 37.7754C321.848 37.7754 323.174 37.3197 325.144 36.4082C327.113 35.4967 329.188 34.4225 331.369 33.1855C333.566 31.9323 335.438 30.736 336.984 29.5967C337.391 29.32 337.717 29.1816 337.961 29.1816C338.059 29.1816 338.148 29.2061 338.229 29.2549C338.409 29.3851 338.498 29.6048 338.498 29.9141C338.498 30.0117 338.474 30.207 338.425 30.5C338.376 30.793 338.156 31.1917 337.766 31.6963C336.626 32.8682 334.893 34.1947 332.565 35.6758C330.254 37.1406 327.829 38.4264 325.29 39.5332C322.767 40.6237 320.603 41.2178 318.796 41.3154ZM318.405 35.5537C318.698 35.5537 319.195 35.1061 319.895 34.2109C320.546 33.3809 321.075 32.5264 321.481 31.6475C321.758 31.0127 321.896 30.5407 321.896 30.2314C321.896 29.9222 321.726 29.7676 321.384 29.7676C321.107 29.7676 320.725 29.9629 320.236 30.3535C319.748 30.7441 319.3 31.3952 318.894 32.3066C318.373 33.6087 318.112 34.5202 318.112 35.041C318.112 35.3828 318.21 35.5537 318.405 35.5537ZM366.502 44.0986C364.077 44.0986 362.343 43.2848 361.302 41.6572C360.179 39.9157 359.617 37.4824 359.617 34.3574C359.617 33.0065 359.568 32.0951 359.471 31.623C359.373 31.151 359.161 30.915 358.836 30.915C357.908 30.915 355.271 32.4531 350.926 35.5293C348.842 37.0267 347.223 37.7754 346.067 37.7754C345.351 37.7754 344.879 37.4743 344.651 36.8721C344.57 36.5954 344.497 35.9036 344.432 34.7969C344.383 34.097 344.326 33.4622 344.261 32.8926C344.196 32.3229 344.082 32.0381 343.919 32.0381C343.772 32.0381 343.309 32.3148 342.527 32.8682C341.762 33.4215 340.875 34.1051 339.866 34.9189C337.327 36.8232 335.512 37.7754 334.422 37.7754C333.836 37.7754 333.535 37.4743 333.519 36.8721C333.519 36.6442 333.665 36.0908 333.958 35.2119C334.235 34.333 334.576 33.3646 334.983 32.3066C335.374 31.2487 335.708 30.4512 335.984 29.9141C336.261 29.377 336.53 29.027 336.79 28.8643C337.05 28.6852 337.36 28.5957 337.718 28.5957C338.19 28.5957 338.507 28.6852 338.67 28.8643C338.849 29.0433 338.938 29.2874 338.938 29.5967C338.938 30.0036 338.849 30.4919 338.67 31.0615L338.45 32.0381L340.916 30.6221C342.641 29.6455 344.098 29.1572 345.286 29.1572C346.214 29.1572 346.938 29.4502 347.459 30.0361C347.996 30.6058 348.265 31.4603 348.265 32.5996C348.265 32.9414 348.281 33.2018 348.313 33.3809C348.362 33.5599 348.468 33.6494 348.631 33.6494C349.038 33.6494 350.063 33.0146 351.707 31.7451C355.32 29.2712 358.152 28.0342 360.203 28.0342C361.391 28.0342 362.238 28.4655 362.742 29.3281C362.921 29.7025 363.1 30.3535 363.279 31.2812C363.458 32.209 363.589 33.1937 363.67 34.2354C363.833 36.6768 364.199 38.3532 364.769 39.2646C365.338 40.1598 366.315 40.6074 367.698 40.6074C369.879 40.6074 372.98 39.7122 377 37.9219C381.02 36.1315 385.114 33.8122 389.28 30.9639C391.966 29.0433 393.707 28.083 394.505 28.083C394.847 28.083 395.091 28.2376 395.237 28.5469C395.335 28.7422 395.384 28.9456 395.384 29.1572C395.384 29.6292 395.05 30.1908 394.383 30.8418C393.732 31.4766 392.658 32.3066 391.16 33.332C386.131 36.7826 381.451 39.4437 377.122 41.3154C372.809 43.1709 369.269 44.0986 366.502 44.0986ZM401.366 43.0488C400.162 43.0488 399.096 42.821 398.168 42.3652C397.257 41.9095 396.605 41.1852 396.215 40.1924C395.873 39.2321 395.678 37.8649 395.629 36.0908C395.287 36.2699 394.831 36.5791 394.262 37.0186C393.79 37.3766 393.269 37.7428 392.699 38.1172C392.13 38.4915 391.527 38.8171 390.893 39.0938C390.258 39.3542 389.623 39.4844 388.988 39.4844C388.061 39.4844 387.222 39.1426 386.474 38.459C385.904 37.873 385.619 37.2139 385.619 36.4814C385.619 35.5374 385.961 34.5609 386.645 33.5518C387.312 32.5426 388.069 31.6393 388.915 30.8418C389.745 30.0443 390.453 29.4827 391.039 29.1572C391.625 28.8154 392.276 28.5632 392.992 28.4004C393.708 28.2214 394.4 28.1318 395.067 28.1318C395.751 28.1318 396.353 28.2295 396.874 28.4248C397.395 28.6201 397.672 28.9538 397.704 29.4258C397.704 29.735 397.541 29.971 397.216 30.1338C396.907 30.2803 396.361 30.4023 395.58 30.5C394.636 30.6465 393.692 31.0778 392.748 31.7939C391.82 32.5101 391.039 33.2751 390.404 34.0889C389.77 34.9027 389.452 35.5049 389.452 35.8955C389.452 36.0908 389.558 36.1885 389.77 36.1885C390.095 36.1885 390.559 35.9932 391.161 35.6025C391.747 35.2119 392.398 34.7562 393.114 34.2354C394.026 33.5355 394.945 32.9007 395.873 32.3311C396.801 31.7451 397.59 31.4521 398.241 31.4521C399.136 31.4521 399.584 32.1846 399.584 33.6494C399.584 34.0563 399.551 34.5283 399.486 35.0654C399.405 35.6839 399.364 36.2373 399.364 36.7256C399.364 37.8812 399.584 38.7275 400.023 39.2646C400.479 39.8018 401.212 40.0703 402.221 40.0703H402.392C405.142 39.8913 408.137 39.0042 411.376 37.4092C414.615 35.7979 417.349 34.097 419.579 32.3066L420.458 31.5742C421.321 30.8581 421.98 30.3454 422.436 30.0361C422.891 29.7106 423.323 29.5479 423.729 29.5479C423.99 29.5479 424.275 29.6048 424.584 29.7188C424.828 29.8164 424.95 29.9792 424.95 30.207C424.95 30.4349 424.828 30.7035 424.584 31.0127C421.101 34.512 417.423 37.3034 413.549 39.3867C409.675 41.4701 405.989 42.6745 402.489 43C402.099 43.0326 401.724 43.0488 401.366 43.0488ZM418.75 43.0244C418.099 43.0244 417.57 42.7396 417.163 42.1699C417.017 41.9583 416.943 41.641 416.943 41.2178C416.943 39.7855 417.765 37.3604 419.409 33.9424C420.321 32.0706 421.037 30.8174 421.558 30.1826C422.078 29.5316 422.664 29.2061 423.315 29.2061C424.097 29.2061 424.487 29.6211 424.487 30.4512C424.487 31.1999 424.162 32.3229 423.511 33.8203C422.86 35.3014 422.534 36.1315 422.534 36.3105H422.559C422.624 36.3105 422.917 36.1559 423.438 35.8467C423.958 35.5374 424.585 35.1305 425.317 34.626C427.661 32.9658 429.565 32.1357 431.03 32.1357C432.902 32.1357 434.09 33.4867 434.595 36.1885C434.806 37.4417 435.026 38.3451 435.254 38.8984C435.498 39.4518 435.889 39.7285 436.426 39.7285C436.979 39.7285 437.793 39.4681 438.867 38.9473C440.544 38.1823 442.684 36.9209 445.288 35.1631C447.909 33.389 449.992 31.8021 451.538 30.4023C452.531 29.6211 453.402 29.2305 454.15 29.2305C454.753 29.2305 455.07 29.4746 455.103 29.9629C455.103 30.3861 454.769 30.9069 454.102 31.5254C450.765 34.9271 447.445 37.6045 444.141 39.5576C440.837 41.4945 437.996 42.4629 435.62 42.4629C434.823 42.4629 434.098 42.3408 433.447 42.0967C432.503 41.6735 431.868 40.9248 431.543 39.8506C431.217 38.7601 431.014 37.7184 430.933 36.7256C430.868 36.2048 430.794 35.7816 430.713 35.4561C430.648 35.1143 430.542 34.9434 430.396 34.9434C429.614 34.9434 427.466 36.6035 423.95 39.9238C421.737 41.9909 420.003 43.0244 418.75 43.0244Z" fill="white"/>
</g>
<defs>
<clipPath id="clip0_743_1594">
<rect width="455" height="62" fill="white"/>
</clipPath>
</defs>
</svg>
