<svg width="435" height="62" viewBox="0 0 435 62" fill="none" xmlns="http://www.w3.org/2000/svg">
<path d="M12.2168 61.7002C10.7682 61.7002 9.72656 61.2119 9.0918 60.2354C8.83138 59.8285 8.70117 59.3076 8.70117 58.6729C8.70117 57.6149 9.17318 56.0036 10.1172 53.8389C11.0612 51.6904 13.4538 48.362 17.2949 43.8535C15.6836 43.0234 13.9583 42.234 12.1191 41.4854C10.0521 40.6553 8.1071 39.7601 6.28418 38.7998C4.47754 37.8232 3.06966 36.6351 2.06055 35.2354C1.32812 34.2262 0.961914 33.0381 0.961914 31.6709C0.961914 31.1663 1.07585 30.263 1.30371 28.9609C1.54785 27.6589 2.82552 25.5104 5.13672 22.5156C7.20378 19.8952 9.7347 17.3154 12.7295 14.7764C15.7243 12.2373 18.8981 9.95866 22.251 7.94043C25.6038 5.90592 28.8346 4.35156 31.9434 3.27734C34.3197 2.46354 36.46 2.05664 38.3643 2.05664C38.9502 2.05664 39.5117 2.09733 40.0488 2.17871C42.832 2.69954 44.6387 3.75749 45.4688 5.35254C45.9733 6.3291 46.2256 7.40332 46.2256 8.5752C46.2256 9.29134 46.0465 10.3737 45.6885 11.8223C45.3467 13.2546 44.5736 14.9635 43.3691 16.9492C42.181 18.9349 40.944 20.5951 39.6582 21.9297C38.3887 23.248 37.4365 23.9072 36.8018 23.9072C36.5576 23.9072 36.3135 23.8665 36.0693 23.7852C35.8415 23.7038 35.6462 23.6143 35.4834 23.5166C35.3369 23.4027 35.2637 23.3132 35.2637 23.248C35.2637 23.0365 36.0368 21.9297 37.583 19.9277C39.7314 17.2422 41.2858 14.6136 42.2461 12.042C42.6042 11.0817 42.7832 10.1865 42.7832 9.35645C42.7832 8.88444 42.6693 8.24154 42.4414 7.42773C42.2298 6.59766 41.237 5.95475 39.4629 5.49902C39.0397 5.41764 38.5758 5.37695 38.0713 5.37695C36.0856 5.37695 33.3757 6.0931 29.9414 7.52539C26.5072 8.94141 22.7637 11.0817 18.7109 13.9463C14.6582 16.7946 11.1833 19.9277 8.28613 23.3457C6.18652 25.722 4.90885 27.7158 4.45312 29.3271C4.29036 29.9131 4.20898 30.4746 4.20898 31.0117C4.20898 31.9232 4.51823 32.8346 5.13672 33.7461C5.77148 34.6413 6.85384 35.4958 8.38379 36.3096C9.91374 37.1071 11.6064 37.8721 13.4619 38.6045C15.1872 39.2881 16.8717 40.0449 18.5156 40.875C18.6947 40.9727 18.8493 41.0622 18.9795 41.1436C19.126 41.2249 19.2318 41.2819 19.2969 41.3145C19.362 41.347 19.4271 41.3633 19.4922 41.3633C19.6061 41.3633 19.7363 41.347 19.8828 41.3145C20.0293 41.2656 20.2327 41.2087 20.4932 41.1436C20.8675 41.0459 21.2012 40.9971 21.4941 40.9971C21.8359 40.9971 22.1045 41.054 22.2998 41.168C22.5114 41.2819 22.6172 41.4365 22.6172 41.6318C22.6172 41.876 22.487 42.1852 22.2266 42.5596C22.1615 42.641 22.1289 42.7305 22.1289 42.8281C22.1289 42.9258 22.1777 43.056 22.2754 43.2188C22.373 43.3652 22.6172 43.6175 23.0078 43.9756C24.9772 45.9287 25.9619 47.8818 25.9619 49.835C25.9619 49.9163 25.9375 50.486 25.8887 51.5439C25.8398 52.6182 25.083 54.0016 23.6182 55.6943C22.1696 57.4033 20.4443 58.7949 18.4424 59.8691C16.1637 61.0898 14.0885 61.7002 12.2168 61.7002ZM13.4131 58.7461C13.8363 58.7461 14.5036 58.5833 15.415 58.2578C16.3428 57.9323 17.474 57.1999 18.8086 56.0605C20.1432 54.9375 21.1361 53.6354 21.7871 52.1543C22.0964 51.4707 22.251 50.779 22.251 50.0791C22.251 48.9235 21.7952 47.7028 20.8838 46.417C20.542 45.9287 20.2083 45.6846 19.8828 45.6846C19.6712 45.6846 19.4515 45.8066 19.2236 46.0508C16.001 49.7129 13.8932 52.5124 12.9004 54.4492C12.2331 55.735 11.8994 56.7197 11.8994 57.4033C11.8994 57.7614 11.9889 58.0381 12.168 58.2334C12.4609 58.5752 12.876 58.7461 13.4131 58.7461ZM39.7324 40.8262C38.0723 40.8262 36.9818 39.6055 36.4609 37.1641C36.2168 36.0573 36.0459 35.0319 35.9482 34.0879C35.7041 32.623 35.46 31.8906 35.2158 31.8906C35.0042 31.8906 34.4671 32.2731 33.6045 33.0381C32.7581 33.7868 31.863 34.6413 30.9189 35.6016C29.9749 36.5618 29.2181 37.4163 28.6484 38.165C27.7858 39.2881 27.0208 39.8496 26.3535 39.8496H26.1826C25.7106 39.7682 25.3525 39.5973 25.1084 39.3369C24.848 39.0765 24.7178 38.694 24.7178 38.1895V37.9941C24.734 36.4805 26.3128 32.1022 29.4541 24.8594C30.626 22.0762 31.5456 19.944 32.2129 18.4629C32.8965 16.9818 33.4417 15.9564 33.8486 15.3867C34.2718 14.8008 34.638 14.4753 34.9473 14.4102C35.2565 14.3288 35.5495 14.2881 35.8262 14.2881C35.8913 14.2881 36.0133 14.2962 36.1924 14.3125C36.3877 14.3288 36.5505 14.4102 36.6807 14.5566L36.7051 14.6787C36.7051 15.0205 36.4202 15.9727 35.8506 17.5352C35.2972 19.0977 34.4997 21.0996 33.458 23.541C32.4163 25.9824 31.5781 28.0251 30.9434 29.6689C30.3086 31.2965 29.9912 32.1917 29.9912 32.3545L31.8467 31.2314C32.6117 30.7269 33.3522 30.2793 34.0684 29.8887C34.9147 29.4167 35.6634 29.1807 36.3145 29.1807C37.9746 29.1807 38.9674 30.6536 39.293 33.5996C39.3906 34.3483 39.529 35.0807 39.708 35.7969C39.9033 36.4967 40.0986 37.0013 40.2939 37.3105C40.4893 37.6035 40.7904 37.75 41.1973 37.75C42.0436 37.75 43.2969 37.1641 44.957 35.9922C46.6172 34.804 48.3587 33.3799 50.1816 31.7197L50.6699 31.2803C51.1257 30.9222 51.5732 30.7432 52.0127 30.7432C52.3545 30.7432 52.6312 30.8083 52.8428 30.9385C52.9242 31.0036 52.9648 31.085 52.9648 31.1826C52.9648 31.3779 52.8184 31.6872 52.5254 32.1104C51.9883 32.9079 50.9873 34.0228 49.5225 35.4551C47.4554 37.457 45.4372 38.9219 43.4678 39.8496C42.0518 40.5007 40.8066 40.8262 39.7324 40.8262ZM46.8867 43.9023C46.2845 43.9023 45.7148 43.7884 45.1777 43.5605C44.6243 43.3327 44.1279 42.9421 43.6885 42.3887C43.249 41.8353 43.0293 41.2087 43.0293 40.5088C43.0293 38.6859 44.4209 36.3421 47.2041 33.4775C48.0993 32.5173 48.9701 31.6383 49.8164 30.8408C51.3138 29.4248 52.2741 28.7168 52.6973 28.7168C52.8926 28.7168 53.0879 28.8226 53.2832 29.0342C53.4785 29.2295 53.7389 29.5469 54.0645 29.9863C54.1784 30.1328 54.2354 30.2793 54.2354 30.4258C54.2354 30.7025 54.1051 30.9873 53.8447 31.2803C53.6982 31.4919 53.5924 31.6953 53.5273 31.8906C54.4062 33.4368 55.6839 34.21 57.3604 34.21C58.3532 34.21 59.3949 33.9902 60.4854 33.5508C62.1618 32.8672 64.1475 31.7523 66.4424 30.2061C67.7933 29.3109 68.599 28.8633 68.8594 28.8633C69.0872 28.8633 69.2744 28.9609 69.4209 29.1562C69.5674 29.3516 69.6406 29.5713 69.6406 29.8154C69.6406 30.0596 69.5674 30.3037 69.4209 30.5479C68.2327 32.2568 66.6133 33.7868 64.5625 35.1377C62.5117 36.4723 60.1924 37.3105 57.6045 37.6523C57.2464 37.6849 56.9453 37.7012 56.7012 37.7012C56.4733 37.7012 56.2861 37.7256 56.1396 37.7744C56.0094 37.807 55.8792 37.9046 55.749 38.0674C55.6351 38.2301 55.4723 38.4987 55.2607 38.873C54.6097 39.9473 53.6087 40.9889 52.2578 41.998C51.0046 42.9258 49.6374 43.5199 48.1562 43.7803C47.7331 43.8617 47.3099 43.9023 46.8867 43.9023ZM47.1064 41.1924C47.4645 41.1924 48.1562 40.8343 49.1816 40.1182C49.8652 39.6299 50.3779 39.0765 50.7197 38.458C51.0615 37.8395 51.2324 37.2861 51.2324 36.7979C51.2324 36.277 51.029 35.9027 50.6221 35.6748L50.3535 35.9434C50.0117 36.2689 49.4095 36.9525 48.5469 37.9941C47.4076 39.4753 46.8379 40.4437 46.8379 40.8994C46.8379 41.0947 46.9274 41.1924 47.1064 41.1924ZM67.542 51.3975C66.9235 51.3975 66.4922 51.2103 66.248 50.8359C66.1829 50.6732 66.1504 50.4941 66.1504 50.2988C66.1504 49.6315 66.5329 48.6224 67.2979 47.2715C68.0791 45.9368 69.3079 44.3825 70.9844 42.6084C72.3841 41.1761 73.3607 40.0286 73.9141 39.166C74.4674 38.2871 74.8825 37.2373 75.1592 36.0166C75.4684 34.7959 75.623 33.8682 75.623 33.2334C75.623 32.5335 75.4115 32.1836 74.9883 32.1836C74.5163 32.1836 73.7839 32.5417 72.791 33.2578C72.1888 33.6647 71.5703 34.1449 70.9355 34.6982C70.3171 35.2516 69.8369 35.748 69.4951 36.1875C68.6162 37.1803 67.6641 37.6768 66.6387 37.6768C65.9225 37.6768 65.4342 37.3675 65.1738 36.749V36.6025C65.1738 36.1305 65.4017 35.097 65.8574 33.502C66.4434 31.5326 67.6966 27.7402 69.6172 22.125C71.0983 17.763 72.0342 15.0693 72.4248 14.0439C72.9456 12.6117 73.2956 11.7653 73.4746 11.5049C73.8327 11.0166 74.2965 10.7725 74.8662 10.7725H75.3301C75.6393 10.7725 75.9079 11.0166 76.1357 11.5049C76.1683 11.5863 76.1846 11.7083 76.1846 11.8711C76.1846 12.1966 76.0137 12.9779 75.6719 14.2148C75.3952 15.2402 74.6465 17.6654 73.4258 21.4902C71.4238 27.5775 70.4229 30.7269 70.4229 30.9385C70.4229 31.0036 70.4717 31.0361 70.5693 31.0361C70.8623 31.0361 71.3913 30.8571 72.1562 30.499C73.2956 29.8805 74.4674 29.5713 75.6719 29.5713C76.7135 29.5713 77.5762 29.9049 78.2598 30.5723C78.8132 31.1257 79.0898 31.9883 79.0898 33.1602C79.0898 33.5671 79.0573 34.0065 78.9922 34.4785L78.6504 36.5781L81.5557 34.8936C84.0459 33.445 86.4059 32.2161 88.6357 31.207C90.7516 30.2467 92.127 29.7666 92.7617 29.7666H92.8838C93.4209 29.9456 93.6895 30.2793 93.6895 30.7676C93.6895 31.2233 93.2907 31.6383 92.4932 32.0127C91.9723 32.2406 90.9144 32.7858 89.3193 33.6484C87.7406 34.5111 85.9909 35.5039 84.0703 36.627C81.9056 37.8639 80.3024 38.8324 79.2607 39.5322C78.2191 40.2321 77.3971 40.9482 76.7949 41.6807C76.1927 42.3968 75.4847 43.4141 74.6709 44.7324C73.9222 45.9368 73.1654 47.0436 72.4004 48.0527C71.6354 49.0781 71.0576 49.778 70.667 50.1523C69.902 50.8034 69.0557 51.2021 68.1279 51.3486C67.9163 51.3812 67.721 51.3975 67.542 51.3975ZM87.0742 43.9023C86.472 43.9023 85.9023 43.7884 85.3652 43.5605C84.8118 43.3327 84.3154 42.9421 83.876 42.3887C83.4365 41.8353 83.2168 41.2087 83.2168 40.5088C83.2168 38.6859 84.6084 36.3421 87.3916 33.4775C88.2868 32.5173 89.1576 31.6383 90.0039 30.8408C91.5013 29.4248 92.4616 28.7168 92.8848 28.7168C93.0801 28.7168 93.2754 28.8226 93.4707 29.0342C93.666 29.2295 93.9264 29.5469 94.252 29.9863C94.3659 30.1328 94.4229 30.2793 94.4229 30.4258C94.4229 30.7025 94.2926 30.9873 94.0322 31.2803C93.8857 31.4919 93.7799 31.6953 93.7148 31.8906C94.5938 33.4368 95.8714 34.21 97.5479 34.21C98.5407 34.21 99.5824 33.9902 100.673 33.5508C102.349 32.8672 104.335 31.7523 106.63 30.2061C107.981 29.3109 108.786 28.8633 109.047 28.8633C109.275 28.8633 109.462 28.9609 109.608 29.1562C109.755 29.3516 109.828 29.5713 109.828 29.8154C109.828 30.0596 109.755 30.3037 109.608 30.5479C108.42 32.2568 106.801 33.7868 104.75 35.1377C102.699 36.4723 100.38 37.3105 97.792 37.6523C97.4339 37.6849 97.1328 37.7012 96.8887 37.7012C96.6608 37.7012 96.4736 37.7256 96.3271 37.7744C96.1969 37.807 96.0667 37.9046 95.9365 38.0674C95.8226 38.2301 95.6598 38.4987 95.4482 38.873C94.7972 39.9473 93.7962 40.9889 92.4453 41.998C91.1921 42.9258 89.8249 43.5199 88.3438 43.7803C87.9206 43.8617 87.4974 43.9023 87.0742 43.9023ZM87.2939 41.1924C87.652 41.1924 88.3438 40.8343 89.3691 40.1182C90.0527 39.6299 90.5654 39.0765 90.9072 38.458C91.249 37.8395 91.4199 37.2861 91.4199 36.7979C91.4199 36.277 91.2165 35.9027 90.8096 35.6748L90.541 35.9434C90.1992 36.2689 89.597 36.9525 88.7344 37.9941C87.5951 39.4753 87.0254 40.4437 87.0254 40.8994C87.0254 41.0947 87.1149 41.1924 87.2939 41.1924ZM104.849 44.3174C104.328 44.3174 103.831 44.1628 103.359 43.8535C102.887 43.528 102.57 43.1536 102.407 42.7305C102.244 42.291 102.163 41.8434 102.163 41.3877C102.163 40.9645 102.196 40.5658 102.261 40.1914C102.505 38.5964 102.92 37.0664 103.506 35.6016C104.092 34.1204 104.751 32.8997 105.483 31.9395C106.2 30.9792 106.867 30.499 107.485 30.499C108.006 30.499 108.389 30.6699 108.633 31.0117C108.893 31.3372 109.023 31.7279 109.023 32.1836C109.023 32.5905 108.918 33.0055 108.706 33.4287C108.429 33.9007 108.096 34.5924 107.705 35.5039C107.314 36.4154 106.956 37.3105 106.631 38.1895C106.322 39.0684 106.167 39.6543 106.167 39.9473C106.167 40.0286 106.183 40.0693 106.216 40.0693C106.346 40.0693 106.81 39.7357 107.607 39.0684C108.405 38.401 109.349 37.5465 110.439 36.5049C111.937 35.0889 113.044 34.1367 113.76 33.6484C114.492 33.1439 115.143 32.8916 115.713 32.8916C116.494 32.9404 116.982 33.0544 117.178 33.2334C117.389 33.3962 117.495 33.8112 117.495 34.4785L117.422 36.7246C117.422 37.2454 117.544 37.5059 117.788 37.5059C117.902 37.5059 118.065 37.457 118.276 37.3594C119.839 36.6107 121.19 35.7806 122.329 34.8691C123.485 33.9577 124.673 32.859 125.894 31.5732C126.268 31.1175 126.577 30.8896 126.821 30.8896C126.935 30.8896 127.041 30.9466 127.139 31.0605C127.676 31.4837 127.944 31.9313 127.944 32.4033C127.944 32.6149 127.887 32.859 127.773 33.1357C127.383 34.0635 126.691 35.0075 125.698 35.9678C124.705 36.9118 123.688 37.7581 122.646 38.5068C121.605 39.2555 120.815 39.7926 120.278 40.1182C118.83 40.932 117.536 41.3389 116.396 41.3389C115.452 41.3389 114.696 41.0459 114.126 40.46C113.979 40.2646 113.866 40.0612 113.784 39.8496C113.719 39.6217 113.638 39.4346 113.54 39.2881C113.459 39.1416 113.32 39.0684 113.125 39.0684C112.734 39.0684 111.953 39.6055 110.781 40.6797C109.414 41.9167 108.258 42.8363 107.314 43.4385C106.37 44.0244 105.549 44.3174 104.849 44.3174ZM144.62 44.0488C143.416 44.0488 142.35 43.821 141.422 43.3652C140.51 42.9095 139.859 42.1852 139.469 41.1924C139.127 40.2321 138.932 38.8649 138.883 37.0908C138.541 37.2699 138.085 37.5791 137.516 38.0186C137.044 38.3766 136.523 38.7428 135.953 39.1172C135.383 39.4915 134.781 39.8171 134.146 40.0938C133.512 40.3542 132.877 40.4844 132.242 40.4844C131.314 40.4844 130.476 40.1426 129.728 39.459C129.158 38.873 128.873 38.2139 128.873 37.4814C128.873 36.5374 129.215 35.5609 129.898 34.5518C130.566 33.5426 131.323 32.6393 132.169 31.8418C132.999 31.0443 133.707 30.4827 134.293 30.1572C134.879 29.8154 135.53 29.5632 136.246 29.4004C136.962 29.2214 137.654 29.1318 138.321 29.1318C139.005 29.1318 139.607 29.2295 140.128 29.4248C140.649 29.6201 140.925 29.9538 140.958 30.4258C140.958 30.735 140.795 30.971 140.47 31.1338C140.16 31.2803 139.615 31.4023 138.834 31.5C137.89 31.6465 136.946 32.0778 136.002 32.7939C135.074 33.5101 134.293 34.2751 133.658 35.0889C133.023 35.9027 132.706 36.5049 132.706 36.8955C132.706 37.0908 132.812 37.1885 133.023 37.1885C133.349 37.1885 133.813 36.9932 134.415 36.6025C135.001 36.2119 135.652 35.7562 136.368 35.2354C137.28 34.5355 138.199 33.9007 139.127 33.3311C140.055 32.7451 140.844 32.4521 141.495 32.4521C142.39 32.4521 142.838 33.1846 142.838 34.6494C142.838 35.0563 142.805 35.5283 142.74 36.0654C142.659 36.6839 142.618 37.2373 142.618 37.7256C142.618 38.8812 142.838 39.7275 143.277 40.2646C143.733 40.8018 144.465 41.0703 145.475 41.0703H145.646C148.396 40.8913 151.391 40.0042 154.63 38.4092C157.869 36.7979 160.603 35.097 162.833 33.3066L163.712 32.5742C164.575 31.8581 165.234 31.3454 165.689 31.0361C166.145 30.7106 166.576 30.5479 166.983 30.5479C167.244 30.5479 167.529 30.6048 167.838 30.7188C168.082 30.8164 168.204 30.9792 168.204 31.207C168.204 31.4349 168.082 31.7035 167.838 32.0127C164.355 35.512 160.676 38.3034 156.803 40.3867C152.929 42.4701 149.243 43.6745 145.743 44C145.353 44.0326 144.978 44.0488 144.62 44.0488ZM168.571 44.4883C168.278 44.4883 168.002 44.4639 167.741 44.415C166.765 44.2197 166 43.7803 165.446 43.0967C164.893 42.3968 164.51 41.5342 164.299 40.5088C164.071 39.4671 163.957 38.3604 163.957 37.1885C163.957 35.5609 164.095 33.9495 164.372 32.3545C164.649 30.7594 164.934 29.4655 165.227 28.4727C166.008 25.6732 167.098 22.3366 168.498 18.4629C169.914 14.5729 171.298 10.9922 172.648 7.7207C174.016 4.44922 175.017 2.34961 175.651 1.42188C175.896 1.09635 176.213 0.852214 176.604 0.689453C176.994 0.526693 177.377 0.445312 177.751 0.445312C178.272 0.445312 178.662 0.624349 178.923 0.982422C178.939 1.01497 178.947 1.07194 178.947 1.15332C178.947 1.47884 178.793 2.08919 178.483 2.98438C178.19 3.87956 177.808 4.88053 177.336 5.9873C175.676 9.84473 174.016 14.0114 172.355 18.4873C170.712 22.9632 169.564 26.3975 168.913 28.79C168.164 31.7686 167.79 34.332 167.79 36.4805C167.79 38.043 167.977 39.2962 168.352 40.2402C168.742 41.168 169.304 41.6318 170.036 41.6318C172.624 41.6318 177.181 38.2546 183.708 31.5C184.408 30.8001 184.839 30.3851 185.002 30.2549C185.165 30.1084 185.327 30.0352 185.49 30.0352C185.734 30.0514 185.938 30.1898 186.101 30.4502C186.28 30.7106 186.369 30.9954 186.369 31.3047C186.369 32.0371 185.222 33.5426 182.927 35.8213C181.543 37.1885 179.997 38.5312 178.288 39.8496C176.579 41.168 174.862 42.2747 173.137 43.1699C171.428 44.0488 169.906 44.4883 168.571 44.4883ZM185.491 42.3154H185.198C184.222 42.3154 183.351 42.0957 182.586 41.6562C181.805 41.2005 181.3 40.3298 181.072 39.0439C181.007 38.6533 180.975 38.2546 180.975 37.8477C180.975 36.6432 181.251 35.3574 181.805 33.9902C182.928 31.4186 184.384 29.5713 186.175 28.4482C187.151 27.8298 188.063 27.5205 188.909 27.5205C189.642 27.5205 190.325 27.7402 190.96 28.1797C191.774 28.7493 192.181 29.5062 192.181 30.4502C192.181 31.9801 191.139 33.9821 189.056 36.4561C188.079 37.6605 187.591 38.3685 187.591 38.5801C187.591 38.7103 187.68 38.7754 187.859 38.7754C188.543 38.7754 189.869 38.3197 191.839 37.4082C193.808 36.4967 195.883 35.4225 198.064 34.1855C200.262 32.9323 202.133 31.736 203.68 30.5967C204.087 30.32 204.412 30.1816 204.656 30.1816C204.754 30.1816 204.843 30.2061 204.925 30.2549C205.104 30.3851 205.193 30.6048 205.193 30.9141C205.193 31.0117 205.169 31.207 205.12 31.5C205.071 31.793 204.852 32.1917 204.461 32.6963C203.322 33.8682 201.588 35.1947 199.261 36.6758C196.95 38.1406 194.524 39.4264 191.985 40.5332C189.463 41.6237 187.298 42.2178 185.491 42.3154ZM185.101 36.5537C185.394 36.5537 185.89 36.1061 186.59 35.2109C187.241 34.3809 187.77 33.5264 188.177 32.6475C188.453 32.0127 188.592 31.5407 188.592 31.2314C188.592 30.9222 188.421 30.7676 188.079 30.7676C187.802 30.7676 187.42 30.9629 186.932 31.3535C186.443 31.7441 185.996 32.3952 185.589 33.3066C185.068 34.6087 184.808 35.5202 184.808 36.041C184.808 36.3828 184.905 36.5537 185.101 36.5537ZM217.744 61.7246C216.865 61.7246 216.198 61.3421 215.742 60.5771C215.417 60.04 215.254 59.4134 215.254 58.6973C215.254 57.8835 215.465 56.9557 215.889 55.9141C216.361 54.6771 217.142 53.3587 218.232 51.959C219.339 50.5592 221.056 49.3955 223.384 48.4678C223.547 48.4189 223.693 48.3864 223.823 48.3701C224.035 48.3376 224.23 48.2725 224.409 48.1748C224.8 47.9958 225.264 47.3447 225.801 46.2217C228.779 40.0205 233.784 26.1045 240.815 4.47363L241.401 2.74023C241.646 2.46354 241.914 2.3252 242.207 2.3252C242.321 2.3252 242.516 2.38216 242.793 2.49609C243.086 2.59375 243.403 2.87044 243.745 3.32617C244.087 3.76562 244.258 4.20508 244.258 4.64453C243.639 7.39518 242.321 11.7734 240.303 17.7793C238.301 23.7689 236.193 29.7178 233.979 35.626C231.766 41.5342 230.041 45.7008 228.804 48.126C230.285 48.2562 231.758 48.3213 233.223 48.3213C235.485 48.3213 238.089 48.1178 241.035 47.7109C243.981 47.3203 246.886 46.7425 249.751 45.9775C252.843 45.1637 255.122 44.5127 256.587 44.0244C256.929 43.9268 257.197 43.8779 257.393 43.8779C257.539 43.8779 257.645 43.9105 257.71 43.9756C257.808 44.0895 257.856 44.293 257.856 44.5859V45.1475C257.856 45.8799 257.132 46.5798 255.684 47.2471C254.251 47.9307 252.38 48.5492 250.068 49.1025C247.757 49.6559 245.251 50.1198 242.549 50.4941C238.122 51.1289 234.134 51.4463 230.586 51.4463C229.495 51.4463 228.462 51.4137 227.485 51.3486C226.981 51.9834 226.289 53.0332 225.41 54.498C223.148 58.388 221.089 60.6992 219.233 61.4316C218.68 61.627 218.184 61.7246 217.744 61.7246ZM218.818 58.5752C218.9 58.5752 219.071 58.502 219.331 58.3555C219.591 58.2253 220.202 57.4115 221.162 55.9141C222.285 54.0911 222.847 53.0088 222.847 52.667C222.847 52.4229 222.716 52.3008 222.456 52.3008C221.772 52.3008 221.138 52.6589 220.552 53.375C219.966 54.1074 219.494 54.9049 219.136 55.7676C218.745 56.7279 218.55 57.4928 218.55 58.0625C218.55 58.4043 218.639 58.5752 218.818 58.5752ZM273.556 42.9258C272.368 42.9258 271.521 42.348 271.017 41.1924C270.772 40.5576 270.65 39.8415 270.65 39.0439C270.65 37.9697 270.756 36.8955 270.968 35.8213C271.098 35.0563 271.163 34.4622 271.163 34.0391C271.163 33.9089 271.155 33.7949 271.139 33.6973C271.041 33.6973 270.593 33.9089 269.796 34.332C269.015 34.7389 268.079 35.2598 266.988 35.8945C265.589 36.7083 264.49 37.2943 263.692 37.6523C262.911 38.0104 262.244 38.1895 261.69 38.1895C261.251 38.1895 260.82 38.0837 260.396 37.8721C259.924 37.693 259.688 37.278 259.688 36.627C259.688 35.8132 260.071 34.4785 260.836 32.623C261.243 31.5977 261.609 30.8571 261.935 30.4014C262.244 29.9456 262.577 29.7178 262.936 29.7178C263.261 29.7178 263.627 29.8805 264.034 30.2061C264.376 30.3688 264.547 30.6536 264.547 31.0605C264.547 31.3861 264.441 31.8499 264.229 32.4521C263.92 33.2334 263.766 33.7786 263.766 34.0879C263.766 34.3158 263.847 34.4297 264.01 34.4297C264.221 34.4297 264.498 34.3402 264.84 34.1611C265.182 33.9658 265.58 33.7217 266.036 33.4287C266.508 33.1357 267.021 32.8346 267.574 32.5254C270.016 31.1257 271.733 30.4258 272.726 30.4258C273.279 30.4258 273.735 30.5967 274.093 30.9385C274.337 31.1338 274.516 31.3372 274.63 31.5488C274.744 31.7441 274.801 32.029 274.801 32.4033C274.801 32.9567 274.695 33.8193 274.483 34.9912C274.239 36.3258 274.117 37.3594 274.117 38.0918C274.117 38.694 274.199 39.1172 274.361 39.3613C274.54 39.6055 274.817 39.7275 275.191 39.7275C275.94 39.7275 277.714 39.1009 280.514 37.8477C282.581 36.9362 284.697 35.9352 286.861 34.8447C289.042 33.7542 290.759 32.8265 292.013 32.0615C293.38 31.2477 294.316 30.8408 294.82 30.8408C295.113 30.8408 295.309 30.9385 295.406 31.1338C295.504 31.3128 295.553 31.5488 295.553 31.8418C295.553 32.3301 294.747 33.1276 293.136 34.2344C291.541 35.3411 289.547 36.513 287.154 37.75C284.762 38.987 282.312 40.0938 279.806 41.0703C278.325 41.6725 277.079 42.1364 276.07 42.4619C275.077 42.7712 274.239 42.9258 273.556 42.9258ZM288.669 49.0781C288.311 48.9316 288.042 48.7445 287.863 48.5166C287.684 48.2887 287.595 47.9714 287.595 47.5645C287.595 47.0111 287.741 46.238 288.034 45.2451C288.327 44.2686 288.75 42.9583 289.304 41.3145L290.769 36.7979C292.201 32.4196 293.389 28.7982 294.333 25.9336C295.293 23.069 296.075 20.7985 296.677 19.1221C297.295 17.4456 297.792 16.2168 298.166 15.4355C298.557 14.638 298.89 14.1335 299.167 13.9219C299.444 13.7103 299.737 13.6045 300.046 13.6045C300.518 13.6045 300.868 13.6696 301.096 13.7998C301.324 13.9137 301.438 14.1742 301.438 14.5811C301.438 15.0693 301.275 15.8343 300.949 16.876C300.624 17.9014 300.144 19.3255 299.509 21.1484L298.361 24.5176C296.717 29.4004 295.725 32.3952 295.383 33.502C294.895 35.0319 294.65 35.9922 294.65 36.3828C294.65 36.5293 294.683 36.6025 294.748 36.6025C294.96 36.6025 295.432 36.1631 296.164 35.2842C297.678 33.624 299.118 32.2324 300.485 31.1094C301.674 30.2142 302.601 29.7666 303.269 29.7666C303.822 29.7666 304.156 30.0352 304.27 30.5723C304.27 30.7839 304.123 31.0524 303.83 31.3779C303.537 31.7035 303.098 32.1429 302.512 32.6963C301.535 33.5915 300.795 34.4541 300.29 35.2842L300.266 35.3818C300.266 35.6097 300.371 36.098 300.583 36.8467C300.795 37.5954 301.071 38.3197 301.413 39.0195C301.755 39.7194 302.137 40.1589 302.561 40.3379C302.772 40.403 303.008 40.4355 303.269 40.4355C304.994 40.4355 307.5 39.0846 310.788 36.3828C312.09 35.3086 313.189 34.3402 314.084 33.4775L315.134 32.3545C316.208 31.2803 317.038 30.7432 317.624 30.7432C318.08 30.7432 318.356 31.0931 318.454 31.793C318.454 31.9232 318.405 32.0697 318.308 32.2324C318.226 32.3952 318.047 32.6312 317.771 32.9404C317.494 33.2497 317.087 33.6891 316.55 34.2588C315.948 34.9424 315.093 35.7969 313.986 36.8223C312.896 37.8314 311.659 38.8486 310.275 39.874C308.892 40.8831 307.476 41.7458 306.027 42.4619C304.595 43.1618 303.26 43.5117 302.023 43.5117C300.07 43.5117 298.687 42.4782 297.873 40.4111L296.994 38.2139C295.79 39.7438 294.878 40.9238 294.26 41.7539C293.511 42.8118 292.632 44.2035 291.623 45.9287C290.988 47.1006 290.451 47.9144 290.012 48.3701C289.556 48.8421 289.108 49.0781 288.669 49.0781ZM345.75 45.0986C343.325 45.0986 341.591 44.2848 340.55 42.6572C339.427 40.9157 338.865 38.4824 338.865 35.3574C338.865 34.0065 338.816 33.0951 338.719 32.623C338.621 32.151 338.41 31.915 338.084 31.915C337.156 31.915 334.52 33.4531 330.174 36.5293C328.09 38.0267 326.471 38.7754 325.315 38.7754C324.599 38.7754 324.127 38.4743 323.899 37.8721C323.818 37.5954 323.745 36.9036 323.68 35.7969C323.631 35.097 323.574 34.4622 323.509 33.8926C323.444 33.3229 323.33 33.0381 323.167 33.0381C323.021 33.0381 322.557 33.3148 321.775 33.8682C321.01 34.4215 320.123 35.1051 319.114 35.9189C316.575 37.8232 314.76 38.7754 313.67 38.7754C313.084 38.7754 312.783 38.4743 312.767 37.8721C312.767 37.6442 312.913 37.0908 313.206 36.2119C313.483 35.333 313.825 34.3646 314.231 33.3066C314.622 32.2487 314.956 31.4512 315.232 30.9141C315.509 30.377 315.778 30.027 316.038 29.8643C316.299 29.6852 316.608 29.5957 316.966 29.5957C317.438 29.5957 317.755 29.6852 317.918 29.8643C318.097 30.0433 318.187 30.2874 318.187 30.5967C318.187 31.0036 318.097 31.4919 317.918 32.0615L317.698 33.0381L320.164 31.6221C321.889 30.6455 323.346 30.1572 324.534 30.1572C325.462 30.1572 326.186 30.4502 326.707 31.0361C327.244 31.6058 327.513 32.4603 327.513 33.5996C327.513 33.9414 327.529 34.2018 327.562 34.3809C327.61 34.5599 327.716 34.6494 327.879 34.6494C328.286 34.6494 329.311 34.0146 330.955 32.7451C334.568 30.2712 337.4 29.0342 339.451 29.0342C340.639 29.0342 341.486 29.4655 341.99 30.3281C342.169 30.7025 342.348 31.3535 342.527 32.2812C342.706 33.209 342.837 34.1937 342.918 35.2354C343.081 37.6768 343.447 39.3532 344.017 40.2646C344.586 41.1598 345.563 41.6074 346.946 41.6074C349.127 41.6074 352.228 40.7122 356.248 38.9219C360.268 37.1315 364.362 34.8122 368.528 31.9639C371.214 30.0433 372.955 29.083 373.753 29.083C374.095 29.083 374.339 29.2376 374.485 29.5469C374.583 29.7422 374.632 29.9456 374.632 30.1572C374.632 30.6292 374.298 31.1908 373.631 31.8418C372.98 32.4766 371.906 33.3066 370.408 34.332C365.379 37.7826 360.7 40.4437 356.37 42.3154C352.057 44.1709 348.517 45.0986 345.75 45.0986ZM380.614 44.0488C379.41 44.0488 378.344 43.821 377.416 43.3652C376.505 42.9095 375.854 42.1852 375.463 41.1924C375.121 40.2321 374.926 38.8649 374.877 37.0908C374.535 37.2699 374.079 37.5791 373.51 38.0186C373.038 38.3766 372.517 38.7428 371.947 39.1172C371.378 39.4915 370.775 39.8171 370.141 40.0938C369.506 40.3542 368.871 40.4844 368.236 40.4844C367.309 40.4844 366.47 40.1426 365.722 39.459C365.152 38.873 364.867 38.2139 364.867 37.4814C364.867 36.5374 365.209 35.5609 365.893 34.5518C366.56 33.5426 367.317 32.6393 368.163 31.8418C368.993 31.0443 369.701 30.4827 370.287 30.1572C370.873 29.8154 371.524 29.5632 372.24 29.4004C372.956 29.2214 373.648 29.1318 374.315 29.1318C374.999 29.1318 375.601 29.2295 376.122 29.4248C376.643 29.6201 376.92 29.9538 376.952 30.4258C376.952 30.735 376.789 30.971 376.464 31.1338C376.155 31.2803 375.609 31.4023 374.828 31.5C373.884 31.6465 372.94 32.0778 371.996 32.7939C371.068 33.5101 370.287 34.2751 369.652 35.0889C369.018 35.9027 368.7 36.5049 368.7 36.8955C368.7 37.0908 368.806 37.1885 369.018 37.1885C369.343 37.1885 369.807 36.9932 370.409 36.6025C370.995 36.2119 371.646 35.7562 372.362 35.2354C373.274 34.5355 374.193 33.9007 375.121 33.3311C376.049 32.7451 376.838 32.4521 377.489 32.4521C378.384 32.4521 378.832 33.1846 378.832 34.6494C378.832 35.0563 378.799 35.5283 378.734 36.0654C378.653 36.6839 378.612 37.2373 378.612 37.7256C378.612 38.8812 378.832 39.7275 379.271 40.2646C379.727 40.8018 380.46 41.0703 381.469 41.0703H381.64C384.39 40.8913 387.385 40.0042 390.624 38.4092C393.863 36.7979 396.597 35.097 398.827 33.3066L399.706 32.5742C400.569 31.8581 401.228 31.3454 401.684 31.0361C402.139 30.7106 402.571 30.5479 402.978 30.5479C403.238 30.5479 403.523 30.6048 403.832 30.7188C404.076 30.8164 404.198 30.9792 404.198 31.207C404.198 31.4349 404.076 31.7035 403.832 32.0127C400.349 35.512 396.671 38.3034 392.797 40.3867C388.923 42.4701 385.237 43.6745 381.737 44C381.347 44.0326 380.972 44.0488 380.614 44.0488ZM397.998 44.0244C397.347 44.0244 396.818 43.7396 396.411 43.1699C396.265 42.9583 396.191 42.641 396.191 42.2178C396.191 40.7855 397.013 38.3604 398.657 34.9424C399.569 33.0706 400.285 31.8174 400.806 31.1826C401.326 30.5316 401.912 30.2061 402.563 30.2061C403.345 30.2061 403.735 30.6211 403.735 31.4512C403.735 32.1999 403.41 33.3229 402.759 34.8203C402.108 36.3014 401.782 37.1315 401.782 37.3105H401.807C401.872 37.3105 402.165 37.1559 402.686 36.8467C403.206 36.5374 403.833 36.1305 404.565 35.626C406.909 33.9658 408.813 33.1357 410.278 33.1357C412.15 33.1357 413.338 34.4867 413.843 37.1885C414.054 38.4417 414.274 39.3451 414.502 39.8984C414.746 40.4518 415.137 40.7285 415.674 40.7285C416.227 40.7285 417.041 40.4681 418.115 39.9473C419.792 39.1823 421.932 37.9209 424.536 36.1631C427.157 34.389 429.24 32.8021 430.786 31.4023C431.779 30.6211 432.65 30.2305 433.398 30.2305C434.001 30.2305 434.318 30.4746 434.351 30.9629C434.351 31.3861 434.017 31.9069 433.35 32.5254C430.013 35.9271 426.693 38.6045 423.389 40.5576C420.085 42.4945 417.244 43.4629 414.868 43.4629C414.071 43.4629 413.346 43.3408 412.695 43.0967C411.751 42.6735 411.117 41.9248 410.791 40.8506C410.465 39.7601 410.262 38.7184 410.181 37.7256C410.116 37.2048 410.042 36.7816 409.961 36.4561C409.896 36.1143 409.79 35.9434 409.644 35.9434C408.862 35.9434 406.714 37.6035 403.198 40.9238C400.985 42.9909 399.251 44.0244 397.998 44.0244Z" fill="white"/>
</svg>
